<svg width="172" height="261" viewBox="0 0 172 261" fill="none" xmlns="http://www.w3.org/2000/svg">
<path d="M43.5 84.5L41.5 92L45.5 93L48 85L43.5 84.5Z" fill="white"/>
<rect x="128" y="8" width="8" height="8" fill="#FAC010"/>
<rect x="139" width="8" height="8" fill="#FFD760"/>
<rect x="136" y="15" width="8" height="8" fill="#FFD760"/>
<rect x="146" y="16" width="8" height="8" fill="#FFD760"/>
<rect x="164" width="8" height="8" fill="#20AD83"/>
<rect x="160" y="11" width="8" height="8" fill="#89C5CC"/>
<rect x="144" y="26" width="8" height="8" fill="#FFD760"/>
<rect x="133" y="30" width="8" height="8" fill="#FAC010"/>
<path d="M109 83.5L90.5 72C86.3333 72.9999 78 73.0999 78 65.5C78 57.9 86.3333 59 90.5 60.5C103 60 110.5 69.9999 115 74.9999C118.717 79.1304 122.667 98.5 123.5 107.5L115 109L109 83.5Z" fill="#000507"/>
<path d="M123.5 112.5L122 106.5L116.5 106L119 113L117.5 119.5L133 121.5L123.5 112.5Z" fill="#000507"/>
<path d="M118.5 62.5C111.3 58.5 92.5 61.8333 84 64C76 66.8333 64.4 72.8 82 74C99.6 75.2 107.667 71.1666 109.5 69C108.3 75.6213 105.667 87.0922 104.5 92L111 95.5C119.4 78.3 119.5 66.3333 118.5 62.5Z" fill="#26282D"/>
<path d="M76.1288 69.1362C76.2417 70.1391 76.3666 71.0971 76.5 72C76.0067 71.5067 75.5718 70.476 76.1288 69.1362C74.408 53.8465 75.4834 28.1246 92 28.5L114 31.5C115.167 29 118.6 23.1 123 19.5C124 19.5 124 19.5 124.5 20.5C124.28 24.1276 121.403 31.8812 116 37C112.5 37.5 104.6 38.2 101 37C99.1667 43.3333 94.8 57.3 92 62.5C89.3333 62.5 83 63.2 79 66C77.368 67.1424 76.5128 68.2127 76.1288 69.1362Z" fill="#1E67FC"/>
<path d="M75.5 24.5C75.5 19.7 71.8333 19.1666 70 19.5L67.5 22.5L66 31.5V44.5C66 48 70.5 51.5 80.5 46C88.5 41.6 84.1667 36.5 81 34.5C83.4 28.1 78.3333 25.1666 75.5 24.5Z" fill="#272F77"/>
<path d="M0 185.394V261H150V185.394L94.1861 74H59.3023L0 185.394Z" fill="#D0D8E5"/>
<path fill-rule="evenodd" clip-rule="evenodd" d="M8.49998 228C29 220.333 70 178.9 70 74.4999C70 74.333 69.9998 74.1664 69.9995 74L59.3023 74L0 185.394L0 230.078C2.67495 229.906 5.50602 229.229 8.49998 228Z" fill="url(#paint0_linear)"/>
<path d="M8.5 228C23.7787 222.286 50.4445 197.816 63.0369 142.5" stroke="#61646B" stroke-width="1.5" stroke-linecap="round"/>
<path opacity="0.5" fill-rule="evenodd" clip-rule="evenodd" d="M150 228.052C95.1981 204.999 82.4402 124.012 83.6965 74L94.1861 74L150 185.394V228.052Z" fill="url(#paint1_linear)"/>
<path d="M54.5 97V92H58.5V97.5L54.5 97Z" fill="white"/>
<path d="M110.5 90.5L109 99.5L104 101.5V97.5L106.5 88.5L110.5 90.5Z" fill="#26282D"/>
<path d="M59.5 94.5H53.5V94.4999C53.5 92.9999 53.5 90.9999 52.5 85.9999C51 78.4999 48.5 64.4999 52.5 61.9999C56.5 59.4999 72.5 61 78.5 67C83.3 71.8 77.1667 73.6667 73.5 74H59.5V94.5Z" fill="#69A1AC"/>
<path d="M69 31.5C61.4 31.5 58.1667 43.5 57.5 49.5L61.5 58C53.5 54.4 49.5 59.5 48.5 62.5L40.5 84.5L48.5 88L51 77V74C49.4 63.2 56.6667 65.8333 60.5 68.5C64.1 71.7 70.6667 72.8333 73.5 73C96.5 73.5 78.5 31.5 69 31.5Z" fill="#89C5CC"/>
<path fill-rule="evenodd" clip-rule="evenodd" d="M57.6152 56.8453C62.4825 59.442 73.3737 62.4145 79.5 60.5C81.944 59.7363 83.2505 57.2469 83.8484 54.09C81.3575 43.139 74.001 31.5 69 31.5C61.4 31.5 58.1667 43.5 57.5 49.5L61.5 58C60.0811 57.3615 58.7881 56.9967 57.6152 56.8453Z" fill="#FAC010"/>
<path fill-rule="evenodd" clip-rule="evenodd" d="M36.9984 41C36.3497 41 35.8726 41.6081 36.0272 42.2382L40.1962 59.2382C40.3059 59.6855 40.7069 60 41.1675 60H64.2698C64.3998 60 64.5229 59.9756 64.6354 59.9315C64.7484 59.9757 64.8713 60 65 60H72C72.5523 60 73 59.5523 73 59C73 58.4477 72.5523 58 72 58H65.0542L61.072 41.7618C60.9623 41.3145 60.5613 41 60.1007 41H36.9984Z" fill="#26282D"/>
<path d="M125 14C123 15.6 122.167 19.3333 122 21C127.2 21 129.5 18.3333 130 17H127.5V15H130V14H125Z" fill="#A69781"/>
<path d="M61 23.8446C61 30.8027 63.6281 32.8474 64.9422 33C72.8267 32.0845 71.0746 21.0979 70.1985 19.7246C69.3225 18.3513 61 15.1469 61 23.8446Z" fill="#E7CAB9"/>
<path fill-rule="evenodd" clip-rule="evenodd" d="M65.2127 24.2821C66.0165 26.683 66.8871 29.283 70 29C70.0734 28.9934 70.1459 28.9846 70.2177 28.9737C71.6718 25.3841 70.7571 20.6003 70.1985 19.7246C69.41 18.4885 62.5881 15.7687 61.2333 21.5811C61.592 20.9666 61.9877 20.5 62.5 20.5C64.0191 20.717 64.5963 22.441 65.2127 24.2821Z" fill="#272F77"/>
<ellipse cx="49.931" cy="50.2983" rx="1.5" ry="2" transform="rotate(-16.7 49.931 50.2983)" fill="#C4C4C4"/>
<path d="M65 53C68.8333 53 77.2 53.4 80 55" stroke="#FF9B21" stroke-linecap="round"/>
<rect x="92" y="20" width="6" height="12" rx="3" fill="#90816B"/>
<path d="M90.5 20.9999C89.7 24.9999 91.1666 26.3333 92 26.4999C97 27.4999 99 23.5 100.5 21.5C102 19.5 104 11.4999 96.5 10.9999C90.5 10.5999 90 17.4999 90.5 20.9999Z" fill="#A69781"/>
<path d="M116.33 119.173C117.793 112.742 119.608 111.555 120.332 111.766C121.363 111.928 121.284 113.127 121.116 113.707C123.007 115.079 123.433 114.037 123.409 113.345C123.675 111.502 124.739 112.245 125.237 112.847C125.951 114.563 129.221 117.489 130.766 118.737C133.55 119.82 134.269 120.783 134.281 121.129C134.659 122.61 132.914 123.131 131.994 123.207C128.609 123.733 125.937 122.42 125.025 121.698C124.127 120.615 122.757 120.811 122.184 121.045C119.64 120.992 117.221 119.775 116.33 119.173Z" fill="#272F77"/>
<path d="M98.3951 100.314C102.816 95.4196 104.98 95.2717 105.509 95.8096C106.329 96.4548 105.673 97.4627 105.243 97.8859C106.222 100.007 107.103 99.3069 107.421 98.6915C108.553 97.2142 109.118 98.3825 109.259 99.1514C109.043 100.997 110.464 105.148 111.201 106.993C113.1 109.298 113.256 110.49 113.097 110.798C112.703 112.274 110.925 111.876 110.086 111.492C106.876 110.295 105.188 107.844 104.745 106.768C104.492 105.384 103.2 104.885 102.586 104.809C100.394 103.519 98.8785 101.275 98.3951 100.314Z" fill="#272F77"/>
<path d="M52 76.5C50.3334 71.5 49.6 62.7 60 67.5" stroke="#194A54" stroke-linecap="round"/>
<path d="M92.0111 23.0458C92.5624 23.3106 93.8757 23.5972 94.7189 22.6244" stroke="#272F77" stroke-linecap="round"/>
<path d="M63.0111 30.0458C63.5624 30.3106 64.8757 30.5972 65.7189 29.6244" stroke="#272F77" stroke-linecap="round"/>
<path d="M63.5 25.5L63 27.25L62.75 28.125" stroke="#272F77" stroke-linecap="round"/>
<path d="M31.9779 92.0701C32.5614 90.7305 33.7003 90.7195 34.1969 90.8815C35.0245 91.1515 36.8488 91.1728 38.5676 90.3948C40.2865 89.6167 42.3327 89.5192 42.3818 90.4915C42.4309 91.4637 44.0224 93.3216 44.4135 92.6842C44.8045 92.0468 46.0796 91.5064 46.1851 92.3058C46.2906 93.1052 45.4484 95.1255 45.1065 96.7352C44.8329 98.0229 43.809 97.9057 43.3313 97.6861C43.019 97.5205 41.655 96.9863 38.6968 96.1743C34.999 95.1593 33.1256 94.1657 32.2452 93.4961C31.541 92.9604 31.7735 92.3222 31.9779 92.0701Z" fill="#272F77"/>
<path d="M50.2223 102.697C48.8321 103.303 48.9909 104.912 49.2441 105.64C49.6713 106.87 53.1944 105.493 54.0871 105.183C54.9797 104.873 58.8854 103.363 60.3681 102.694C61.5544 102.16 61.4376 101.659 61.231 101.476C60.6138 99.6995 59.1405 96.1992 58.1844 96.4088C57.2283 96.6185 57.0941 97.247 57.1466 97.5351C56.6886 97.2041 56.1608 96.7545 55.9542 96.5711C54.3792 95.74 53.9288 97.7342 53.0985 98.6352C52.2682 99.5362 51.9601 101.94 50.2223 102.697Z" fill="#272F77"/>
<path d="M129.96 15.3061C129.008 15.026 127.171 14.7514 127.439 15.8942C127.708 17.037 129.232 17.0426 129.96 16.9025" stroke="#272F77" stroke-linecap="round"/>
<path d="M89.8847 62.7124C97.4391 61.1628 113.652 58.9933 118.068 62.7124C119.037 67.0707 119.405 78.6347 113.129 90.0244" stroke="#61646B" stroke-linecap="round"/>
<path d="M83.8881 84.7446C84.0884 95.5609 85.7509 122.361 90.7985 143.032" stroke="#A1A6B3" stroke-width="1.5" stroke-linecap="round"/>
<defs>
<linearGradient id="paint0_linear" x1="63" y1="157" x2="3.57543e-06" y2="152" gradientUnits="userSpaceOnUse">
<stop stop-color="#A1A6B3"/>
<stop offset="1" stop-color="#A1A6B3" stop-opacity="0"/>
</linearGradient>
<linearGradient id="paint1_linear" x1="100.5" y1="178.5" x2="144.5" y2="166.5" gradientUnits="userSpaceOnUse">
<stop stop-color="#F0F4FA"/>
<stop offset="1" stop-color="#F0F4FA" stop-opacity="0"/>
</linearGradient>
</defs>
</svg>
