<svg width="78" height="88" viewBox="0 0 78 88" fill="none" xmlns="http://www.w3.org/2000/svg">
<rect width="78" height="88" fill="white"/>
<path d="M35.5247 1.71068C37.6213 0.508224 40.2044 0.508223 42.301 1.71068L74.3681 20.1022C76.4647 21.3046 77.7562 23.5269 77.7562 25.9318V62.7148C77.7562 65.1197 76.4647 67.3419 74.3681 68.5444L42.301 86.9359C40.2044 88.1383 37.6213 88.1383 35.5247 86.9359L3.4576 68.5444C1.36101 67.3419 0.069458 65.1197 0.069458 62.7148V25.9318C0.069458 23.5269 1.36101 21.3046 3.4576 20.1022L35.5247 1.71068Z" fill="#F0F4FA"/>
<path d="M43.2571 42.786C43.2571 40.0704 45.4584 37.8691 48.174 37.8691H64.4806C67.1961 37.8691 69.3975 40.0704 69.3975 42.786V50.0916C69.3975 51.9699 67.8748 53.4926 65.9965 53.4926V53.4926V55.9126C65.9965 56.3211 65.5272 56.5514 65.204 56.3016L61.5709 53.4926H48.174C45.4584 53.4926 43.2571 51.2912 43.2571 48.5757V42.786Z" fill="#FFB2AC"/>
<path d="M22.4614 57.1143L22.662 56.9565H22.9173H47.3026C49.6108 56.9565 51.4819 55.0854 51.4819 52.7772V37.1845C51.4819 34.8763 49.6108 33.0051 47.3026 33.0051H15.3117C13.0035 33.0051 11.1324 34.8763 11.1324 37.1845V52.7772C11.1324 55.0854 13.0035 56.9565 15.3117 56.9565H15.8365H16.574V57.6941V61.7443L22.4614 57.1143Z" stroke="#1E67FC" stroke-width="1.47507"/>
<path d="M38.4025 42.2214V43.3509C38.3915 43.3759 38.3829 43.4019 38.377 43.4286C38.3201 43.8792 38.1907 44.3178 37.9939 44.7276C37.5601 45.6202 36.9787 46.4339 36.2741 47.135C34.8366 48.6231 33.1821 49.8304 31.4211 50.9035C31.3908 50.9267 31.3537 50.9393 31.3154 50.9393C31.2772 50.9393 31.24 50.9267 31.2097 50.9035C29.7943 50.0624 28.4638 49.0874 27.2366 47.992C26.356 47.2203 25.5902 46.3279 24.9619 45.3418C24.6163 44.8002 24.3836 44.195 24.2776 43.5622C24.1715 42.9294 24.1944 42.2819 24.3447 41.658C24.9889 38.8073 28.5562 37.6424 30.7783 39.5528C30.9685 39.7152 31.1359 39.9044 31.3261 40.0907C31.3378 40.0712 31.3505 40.0523 31.3644 40.0343C32.3577 38.9287 33.5851 38.4345 35.0537 38.6802C36.6643 38.9485 37.72 39.9058 38.2337 41.4462C38.3043 41.7013 38.3606 41.9601 38.4025 42.2214V42.2214Z" fill="#1E67FC"/>
</svg>
