<svg width="223" height="182" viewBox="0 0 223 182" fill="none" xmlns="http://www.w3.org/2000/svg">
<path opacity="0.2" d="M101.25 178.253L11.4977 126.085C4.68677 122.126 0.500158 114.87 0.500159 107.025L0.50003 15.5726C0.50003 7.44418 7.12622 0.854779 15.3 0.854779L207.7 0.854827C215.874 0.854827 222.5 7.44424 222.5 15.5727L222.5 107.24C222.5 115.098 218.3 122.364 211.472 126.318L121.76 178.27C115.42 181.941 107.584 181.935 101.25 178.253Z" fill="#1E67FC"/>
<mask id="mask0" mask-type="alpha" maskUnits="userSpaceOnUse" x="0" y="0" width="223" height="182">
<path d="M101.25 178.253L11.4977 126.085C4.68677 122.126 0.500158 114.87 0.500159 107.025L0.50003 15.5726C0.50003 7.44418 7.12622 0.854779 15.3 0.854779L207.7 0.854827C215.874 0.854827 222.5 7.44424 222.5 15.5727L222.5 107.24C222.5 115.098 218.3 122.364 211.472 126.318L121.76 178.27C115.42 181.941 107.584 181.935 101.25 178.253Z" fill="#1E67FC"/>
</mask>
<g mask="url(#mask0)">
<rect x="15.1934" y="54.1831" width="31.5567" height="29.2442" rx="14.6221" fill="#BAC8E5"/>
<path d="M-5.15447 112.796C-3.01876 95.639 11.5629 82.7599 28.8524 82.7599C45.8205 82.7599 60.2338 95.1772 62.7445 111.958L64.7356 125.267C65.7493 132.042 60.3904 138.085 53.5426 137.89L4.03745 136.476C-2.44853 136.29 -7.36575 130.56 -6.56423 124.121L-5.15447 112.796Z" fill="#BAC8E5"/>
<rect x="81.6353" y="54.1831" width="31.5567" height="29.2442" rx="14.6221" fill="#BAC8E5"/>
<path d="M61.2874 112.796C63.4231 95.639 78.0048 82.7599 95.2943 82.7599C112.262 82.7599 126.676 95.1772 129.186 111.958L131.178 125.267C132.191 132.042 126.832 138.085 119.985 137.89L70.4793 136.476C63.9934 136.29 59.0761 130.56 59.8777 124.121L61.2874 112.796Z" fill="#BAC8E5"/>
<path opacity="0.1" d="M165.53 49.4203L234.37 169.462C239.594 178.571 239.591 189.738 234.363 198.794L173.41 304.367C167.993 313.75 155.952 316.941 146.516 311.493L-75.5889 183.26C-85.0246 177.813 -88.2821 165.79 -82.8646 156.406L-21.7694 50.5857C-16.5322 41.5146 -6.8412 35.9265 3.67687 35.9128L141.865 35.7319C151.63 35.7191 160.672 40.949 165.53 49.4203Z" fill="#1E67FC"/>
<path fill-rule="evenodd" clip-rule="evenodd" d="M174.296 89.7917C175.284 89.6593 176.192 90.3526 176.325 91.3404C176.457 92.3281 175.764 93.2361 174.776 93.3686L174.435 93.4141L174.435 93.4141C172.272 93.7031 171.042 93.8676 169.817 94.4242C168.965 94.8117 169.14 96.0206 169.88 96.595C171.458 97.8212 172.474 99.7376 172.474 101.891C172.474 105.593 169.473 108.593 165.772 108.593C162.07 108.593 159.07 105.593 159.07 101.891C159.07 99.9515 159.894 98.2042 161.211 96.9804C161.373 96.8297 161.5 96.6432 161.647 96.4778C163.92 93.922 165.687 92.4386 167.61 91.5646C169.341 90.7776 171.81 90.1202 173.779 89.8604L173.779 89.8604C173.95 89.8378 174.122 89.8151 174.296 89.7917Z" fill="#DEB6A0"/>
<path d="M164.172 101.866C164.825 101.641 165.621 101.564 166.321 101.564C167.454 101.564 168.372 100.749 168.372 99.7443C168.372 98.7392 167.454 97.9243 166.321 97.9243C165.621 97.9243 164.233 97.8476 163.581 97.6228C163.293 97.5237 162.98 97.4694 162.653 97.4694C161.859 97.4694 161.149 97.7901 160.678 98.2937" stroke="#272F77" stroke-width="1.5" stroke-linecap="round"/>
<path d="M170.962 95.5152C171.639 95.7247 172.316 96.1211 172.885 96.7984C173.454 97.4752 173.886 98.3955 174.126 99.6002C174.21 100.024 173.97 100.444 173.589 100.538C173.383 100.589 172.853 100.923 172.837 101.157C172.812 101.54 172.755 101.943 172.661 102.366C172.568 102.788 172.186 103.046 171.807 102.942C171.428 102.838 171.196 102.413 171.289 101.991C171.503 101.019 171.467 100.272 171.311 99.6969C171.156 99.1231 170.845 97.9354 169.903 97.4111C169.197 97.0178 169.197 96.677 169.197 95.8381C169.197 94.9992 170.216 95.2733 170.962 95.5152Z" fill="#DEB6A0"/>
<path d="M153.967 122.768L144.521 113.154L134.232 107.925C131.59 110.118 127.89 116.662 134.232 125.298C142.16 136.094 160.545 134.407 163.582 130.865C166.01 128.031 167.292 114.391 167.63 107.925C165.549 106.688 161.22 104.956 160.545 107.925C159.871 110.894 155.879 119.058 153.967 122.768Z" fill="#DEB6A0"/>
<path d="M90.0329 154.589L91.8494 125.222L100.629 123.405V154.589H90.0329Z" fill="#272F77"/>
<path d="M92.4551 175.479C107.714 184.199 131.107 179.112 140.896 175.479C147.847 158.576 143.505 145.465 137.763 132.79L136.281 121.144C136.253 118.001 136.145 114.898 135.144 112.203C133.015 106.468 126.061 102.931 126.061 96.4596C90.033 81.6245 91.244 119.772 92.4551 124.616C93.6661 129.46 103.354 153.983 90.033 153.983C88.0954 160.523 90.8404 171.039 92.4551 175.479Z" fill="#F0F4FA"/>
<path fill-rule="evenodd" clip-rule="evenodd" d="M105.171 82.8356C99.721 84.2484 87.9741 91.4944 84.5832 109.175C84.4514 112.272 84.724 117.907 86.2096 122.793C89.6091 119.09 94.9568 117.789 99.2476 117.553C99.1026 117.477 98.9576 117.41 98.8128 117.35V106.753C102.547 105.946 112.255 104.816 121.217 106.753C122.529 106.854 125.94 106.632 129.088 104.937L131.208 114.928C133.651 113.919 139.804 112.203 144.864 113.414C137.409 98.8245 123.253 80.4511 105.171 82.8356Z" fill="#194A54"/>
<path fill-rule="evenodd" clip-rule="evenodd" d="M99.4023 85.5156C101.606 84.0922 103.638 83.2331 105.171 82.8356C108.431 82.4057 111.564 82.6505 114.552 83.4263C116.76 86.4451 117.693 91.3832 115.465 99.1845C109.293 96.1325 100.477 90.455 99.4023 85.5156Z" fill="#DEB6A0"/>
<rect width="13.0969" height="28.2894" rx="6.54846" transform="matrix(-1 0 0 1 114.049 64.1533)" fill="#DEB6A0"/>
<path d="M119.595 64.7942C120.643 59.2935 119.857 55.801 119.334 55.1025L116.976 51.6973L111.999 48.2921L102.308 51.6973L100.736 58.2458L102.308 68.7233L109.38 76.0576L120.119 72.6524C119.683 72.0412 120.905 70.295 119.595 64.7942Z" fill="#E7CAB9"/>
<circle r="3.66714" transform="matrix(-1 0 0 1 98.641 65.8421)" fill="#DEB6A0"/>
<path d="M119.596 55.1025C115.405 57.4076 112.654 55.3645 111.214 52.4831C109.904 49.8637 104.403 49.3399 106.237 53.7928C108.714 59.8092 102.831 58.5077 103.355 64.2704C103.774 68.8805 108.245 70.9935 109.38 70.5569C112.523 69.5965 119.56 68.2885 120.381 71.0808C123.001 79.9867 115.939 83.1299 112.785 83.1299C104.141 83.1299 99.3737 77.8388 98.1164 61.9129C96.5448 42.0056 110.428 45.4108 116.452 45.6727C122.477 45.9347 123.786 52.7975 119.596 55.1025Z" fill="#272F77"/>
<circle r="0.785816" transform="matrix(-1 0 0 1 110.951 61.9129)" fill="#272F77"/>
<circle r="0.785816" transform="matrix(-1 0 0 1 117.238 61.9129)" fill="#272F77"/>
<path d="M116.645 73.0321C116.08 73.3108 115.434 73.4535 114.755 73.4183C113.678 73.3625 112.73 72.8704 112.086 72.1286" stroke="#E7CAB9" stroke-width="1.5" stroke-linecap="round"/>
<path d="M116.714 70.033C119.229 68.3566 116.278 65.3181 114.357 63.7465L113.833 69.5091C114.357 69.9457 115.667 70.6616 116.714 70.033Z" fill="#E7CAB9"/>
<path d="M114.357 63.7465C116.278 65.3181 119.229 68.3566 116.714 70.033C115.667 70.6616 114.357 69.9457 113.833 69.5091" stroke="#272F77" stroke-width="1.5" stroke-linecap="round"/>
<mask id="mask1" mask-type="alpha" maskUnits="userSpaceOnUse" x="84" y="82" width="61" height="42">
<path fill-rule="evenodd" clip-rule="evenodd" d="M105.171 82.8356C99.721 84.2484 87.9741 91.4944 84.5832 109.175C83.8629 114.348 84.2724 119.157 85.8365 123.219C89.2074 119.189 94.7963 117.798 99.2477 117.553C99.1026 117.477 98.9576 117.41 98.8128 117.35V106.753C102.547 105.946 112.255 104.816 121.217 106.753C122.529 106.854 125.94 106.632 129.088 104.937L131.208 114.928C133.651 113.919 139.804 112.203 144.864 113.414C137.409 98.8245 123.253 80.4511 105.171 82.8356Z" fill="#272F77"/>
</mask>
<g mask="url(#mask1)">
<path d="M119.098 82.2301C121.924 85.9641 127.454 96.7019 126.97 109.781" stroke="#F0F4FA" stroke-width="3"/>
<path d="M89.4275 82.5328C93.767 86.9733 102.991 98.8212 105.171 110.689" stroke="#F0F4FA" stroke-width="3"/>
</g>
<path d="M107.29 95.5514L103.051 100.093L98.1867 88.943" stroke="#000507" stroke-width="1.5" stroke-linecap="round"/>
<path d="M119.4 85.2577C120.611 87.1752 123.033 91.6156 123.033 94.0376L118.189 92.5239" stroke="#000507" stroke-width="1.5" stroke-linecap="round"/>
<path d="M105.921 128.116C104.098 127.205 100.363 120.641 98.7589 117.56C93.4969 118.114 91.9085 118.043 86.1973 122.681C92.1738 139.699 105.148 144.003 110.55 143.835L121.495 134.821L125.674 116.847L121.495 110.389C119.47 113.732 110.268 123.6 105.921 128.116Z" fill="#DEB6A0"/>
<path fill-rule="evenodd" clip-rule="evenodd" d="M178.64 130.616C178.64 147.309 165.108 160.841 148.414 160.841C131.721 160.841 118.189 147.309 118.189 130.616C118.189 113.922 131.721 100.39 148.414 100.39C165.108 100.39 178.64 113.922 178.64 130.616ZM148.414 106.435C139.121 106.435 131.052 111.678 127.004 119.367C125.013 123.15 128.335 127.043 132.609 127.043H164.22C168.494 127.043 171.816 123.15 169.825 119.367C165.777 111.678 157.708 106.435 148.414 106.435ZM163.777 142.028C160.25 147.713 153.95 151.499 146.766 151.499C139.581 151.499 133.282 147.713 129.755 142.028C127.502 138.396 130.821 134.462 135.095 134.462H158.436C162.711 134.462 166.03 138.396 163.777 142.028Z" fill="#26282D"/>
<path fill-rule="evenodd" clip-rule="evenodd" d="M128.944 108.308C129.173 108.291 129.408 108.283 129.644 108.288C130.695 108.308 131.548 108.57 132.072 109.098C133.533 110.571 133.824 112.104 133.824 112.488C133.824 113.151 134.362 113.688 135.025 113.688C135.688 113.688 136.225 113.151 136.225 112.488C136.225 111.46 135.676 109.322 133.776 107.407C132.619 106.241 131.022 105.914 129.692 105.887C128.341 105.861 127.048 106.137 126.239 106.408C126.124 106.447 126.017 106.502 125.923 106.57C122.584 107.138 120.02 110.512 120.02 114.589C120.02 115.825 120.256 116.997 120.678 118.046C121.729 115.796 122.902 113.996 124.126 112.523C124.224 112.815 124.45 113.061 124.762 113.175C125.788 113.548 127.581 114.457 128.363 116.216C128.599 116.746 129.219 116.984 129.749 116.749C130.098 116.594 130.32 116.273 130.365 115.921C130.383 115.975 130.399 116.03 130.416 116.085C130.579 116.642 131.163 116.96 131.72 116.797C132.207 116.653 132.512 116.187 132.47 115.7C132.721 115.802 133.007 115.821 133.285 115.733C133.918 115.534 134.268 114.859 134.069 114.227C132.943 110.661 130.802 108.957 128.944 108.308Z" fill="#DEB6A0"/>
<path d="M129.644 108.288L129.649 108.038L129.644 108.288ZM128.944 108.308L128.925 108.059L128.862 108.544L128.944 108.308ZM132.072 109.098L131.894 109.274L132.072 109.098ZM133.776 107.407L133.954 107.231L133.776 107.407ZM129.692 105.887L129.697 105.637L129.692 105.887ZM126.239 106.408L126.16 106.171V106.171L126.239 106.408ZM125.923 106.57L125.965 106.816L126.022 106.807L126.068 106.773L125.923 106.57ZM120.678 118.046L120.446 118.139L120.661 118.673L120.904 118.152L120.678 118.046ZM124.126 112.523L124.363 112.443L124.22 112.018L123.933 112.363L124.126 112.523ZM124.762 113.175L124.677 113.41L124.762 113.175ZM128.363 116.216L128.134 116.317L128.363 116.216ZM129.749 116.749L129.648 116.52L129.749 116.749ZM130.365 115.921L130.603 115.844L130.117 115.889L130.365 115.921ZM130.416 116.085L130.656 116.015V116.015L130.416 116.085ZM131.72 116.797L131.649 116.557H131.649L131.72 116.797ZM132.47 115.7L132.565 115.469L132.186 115.314L132.221 115.721L132.47 115.7ZM133.285 115.733L133.361 115.972L133.285 115.733ZM134.069 114.227L133.83 114.302H133.83L134.069 114.227ZM129.649 108.038C129.405 108.033 129.162 108.041 128.925 108.059L128.963 108.557C129.185 108.541 129.412 108.533 129.639 108.538L129.649 108.038ZM132.249 108.922C131.66 108.327 130.729 108.059 129.649 108.038L129.639 108.538C130.661 108.558 131.436 108.812 131.894 109.274L132.249 108.922ZM134.074 112.488C134.074 112.037 133.756 110.441 132.249 108.922L131.894 109.274C133.31 110.701 133.574 112.171 133.574 112.488H134.074ZM135.025 113.438C134.5 113.438 134.074 113.013 134.074 112.488H133.574C133.574 113.289 134.224 113.938 135.025 113.938V113.438ZM135.975 112.488C135.975 113.013 135.55 113.438 135.025 113.438V113.938C135.826 113.938 136.475 113.289 136.475 112.488H135.975ZM133.599 107.583C135.453 109.452 135.975 111.527 135.975 112.488H136.475C136.475 111.393 135.9 109.192 133.954 107.231L133.599 107.583ZM129.687 106.137C130.988 106.163 132.508 106.483 133.599 107.583L133.954 107.231C132.731 105.998 131.055 105.664 129.697 105.637L129.687 106.137ZM126.319 106.645C127.105 106.381 128.369 106.111 129.687 106.137L129.697 105.637C128.313 105.61 126.99 105.892 126.16 106.171L126.319 106.645ZM126.068 106.773C126.143 106.72 126.227 106.676 126.319 106.645L126.16 106.171C126.02 106.218 125.892 106.285 125.777 106.367L126.068 106.773ZM125.881 106.324C122.396 106.917 119.77 110.418 119.77 114.589H120.27C120.27 110.606 122.772 107.36 125.965 106.816L125.881 106.324ZM119.77 114.589C119.77 115.857 120.012 117.061 120.446 118.139L120.91 117.953C120.5 116.934 120.27 115.794 120.27 114.589H119.77ZM120.904 118.152C121.947 115.92 123.108 114.139 124.318 112.682L123.933 112.363C122.696 113.854 121.511 115.671 120.451 117.94L120.904 118.152ZM123.889 112.603C124.011 112.964 124.29 113.269 124.677 113.41L124.848 112.94C124.61 112.853 124.438 112.666 124.363 112.443L123.889 112.603ZM124.677 113.41C125.685 113.776 127.396 114.655 128.134 116.317L128.591 116.114C127.767 114.26 125.891 113.319 124.848 112.94L124.677 113.41ZM128.134 116.317C128.426 116.973 129.195 117.269 129.851 116.977L129.648 116.52C129.244 116.7 128.771 116.518 128.591 116.114L128.134 116.317ZM129.851 116.977C130.282 116.786 130.558 116.388 130.613 115.952L130.117 115.889C130.083 116.158 129.913 116.403 129.648 116.52L129.851 116.977ZM130.127 115.997C130.144 116.05 130.16 116.102 130.176 116.156L130.656 116.015C130.639 115.957 130.621 115.9 130.603 115.844L130.127 115.997ZM130.176 116.156C130.379 116.845 131.101 117.239 131.79 117.037L131.649 116.557C131.225 116.682 130.78 116.439 130.656 116.015L130.176 116.156ZM131.79 117.037C132.394 116.859 132.771 116.282 132.719 115.678L132.221 115.721C132.253 116.093 132.021 116.448 131.649 116.557L131.79 117.037ZM132.376 115.931C132.678 116.055 133.025 116.078 133.361 115.972L133.21 115.495C132.99 115.564 132.763 115.55 132.565 115.469L132.376 115.931ZM133.361 115.972C134.125 115.73 134.548 114.916 134.307 114.152L133.83 114.302C133.988 114.803 133.711 115.337 133.21 115.495L133.361 115.972ZM134.307 114.152C133.158 110.514 130.962 108.748 129.027 108.072L128.862 108.544C130.642 109.166 132.727 110.809 133.83 114.302L134.307 114.152Z" fill="#DEB6A0"/>
<path d="M90.7144 196.444L10.3477 177.776C4.24903 176.359 0.500231 173.763 0.500231 170.956L0.500112 138.23C0.500112 135.321 6.43337 132.963 13.7524 132.963L186.032 132.963C193.351 132.963 199.284 135.321 199.284 138.23L199.285 171.032C199.285 173.844 195.524 176.444 189.41 177.859L109.079 196.45C103.402 197.764 96.3857 197.761 90.7144 196.444Z" fill="#AEC9FD"/>
<path opacity="0.3" d="M147.5 18.463C161.5 18.463 179.375 19.9007 195.5 27.963C213.5 36.963 205 44.963 179 44.963C169 44.963 156 47.563 156 53.963C156 61.963 195.5 57.963 195.5 71.463C195.5 84.963 179 82.463 180.5 102.463C180 110.963 192.805 116.792 174.297 135.973C170.191 139.639 163.079 149.463 167.47 159.435" stroke="#1E67FC"/>
<path fill-rule="evenodd" clip-rule="evenodd" d="M195 69.3841C199.333 66.9209 201.5 63.1591 201.5 59.5314C201.5 55.9038 198.59 52.963 195 52.963C191.41 52.963 188.5 55.9038 188.5 59.5314C188.5 63.1591 190.396 66.9209 195 69.3841ZM195 61.8578C196.323 61.8578 197.395 60.7856 197.395 59.463C197.395 58.1404 196.323 57.0683 195 57.0683C193.677 57.0683 192.605 58.1404 192.605 59.463C192.605 60.7856 193.677 61.8578 195 61.8578Z" fill="#20AD83"/>
<path fill-rule="evenodd" clip-rule="evenodd" d="M155.5 53.3841C159.833 50.9209 162 47.1591 162 43.5314C162 39.9038 159.09 36.963 155.5 36.963C151.91 36.963 149 39.9038 149 43.5314C149 47.1591 150.896 50.9209 155.5 53.3841ZM155.5 45.8578C156.823 45.8578 157.895 44.7856 157.895 43.463C157.895 42.1404 156.823 41.0683 155.5 41.0683C154.177 41.0683 153.105 42.1404 153.105 43.463C153.105 44.7856 154.177 45.8578 155.5 45.8578Z" fill="#20AD83"/>
<path fill-rule="evenodd" clip-rule="evenodd" d="M179 44.3841C183.333 41.9209 185.5 38.1591 185.5 34.5314C185.5 30.9038 182.59 27.963 179 27.963C175.41 27.963 172.5 30.9038 172.5 34.5314C172.5 38.1591 174.396 41.9209 179 44.3841ZM179 36.8578C180.323 36.8578 181.395 35.7856 181.395 34.463C181.395 33.1404 180.323 32.0683 179 32.0683C177.677 32.0683 176.605 33.1404 176.605 34.463C176.605 35.7856 177.677 36.8578 179 36.8578Z" fill="#20AD83"/>
<g opacity="0.5">
<path d="M188.5 91.0472C188.5 95.512 185.833 100.142 180.5 103.174C174.833 100.142 172.5 95.512 172.5 91.0472C172.5 86.5824 176.082 82.963 180.5 82.963C184.918 82.963 188.5 86.5824 188.5 91.0472Z" fill="#20AD83"/>
</g>
<circle cx="180.5" cy="90.963" r="6" fill="#20AD83"/>
<path d="M179.434 92.2631L178.034 90.8631L177.567 91.3297L179.434 93.1964L183.434 89.1964L182.967 88.7297L179.434 92.2631Z" fill="white"/>
<circle cx="146.5" cy="17.963" r="4" fill="#20AD83"/>
<circle cx="146.5" cy="17.963" r="2" fill="white"/>
<path fill-rule="evenodd" clip-rule="evenodd" d="M167.63 146.622C171.963 144.159 174.13 140.397 174.13 136.769C174.13 133.141 171.22 130.201 167.63 130.201C164.04 130.201 161.13 133.141 161.13 136.769C161.13 140.397 163.026 144.159 167.63 146.622ZM167.63 139.095C168.952 139.095 170.025 138.023 170.025 136.701C170.025 135.378 168.952 134.306 167.63 134.306C166.307 134.306 165.235 135.378 165.235 136.701C165.235 138.023 166.307 139.095 167.63 139.095Z" fill="#20AD83"/>
<path d="M56.8589 132.317H139.466" stroke="#272F77" stroke-width="1.5" stroke-linecap="round"/>
</g>
</svg>
