<svg width="223" height="182" viewBox="0 0 223 182" fill="none" xmlns="http://www.w3.org/2000/svg">
<path opacity="0.2" d="M101.25 178.253L11.4977 126.085C4.68677 122.126 0.500158 114.87 0.500159 107.025L0.50003 15.5725C0.50003 7.44406 7.12622 0.854656 15.3 0.854657L207.7 0.854705C215.874 0.854705 222.5 7.44412 222.5 15.5726L222.5 107.24C222.5 115.098 218.3 122.364 211.472 126.318L121.76 178.27C115.42 181.941 107.584 181.935 101.25 178.253Z" fill="#1E67FC"/>
<path d="M126.174 115.114C111.148 106.977 84.914 106.878 73.6751 107.846C81.3964 116.487 101.679 134.539 121.039 137.623C145.239 141.478 144.957 125.286 126.174 115.114Z" fill="#194A54"/>
<mask id="mask0" mask-type="alpha" maskUnits="userSpaceOnUse" x="0" y="0" width="223" height="182">
<path d="M101.25 178.253L11.4977 126.085C4.68677 122.126 0.500158 114.87 0.500159 107.025L0.50003 15.5726C0.50003 7.44418 7.12622 0.854779 15.3 0.854779L207.7 0.854827C215.874 0.854827 222.5 7.44424 222.5 15.5727L222.5 107.24C222.5 115.098 218.3 122.364 211.472 126.318L121.76 178.27C115.42 181.941 107.584 181.935 101.25 178.253Z" fill="#1E67FC"/>
</mask>
<g mask="url(#mask0)">
<path opacity="0.1" d="M121.75 33.4838L211.502 85.6758C218.313 89.6364 222.5 96.8955 222.5 104.744L222.5 196.238C222.5 204.371 215.874 210.963 207.7 210.963L15.3002 210.963C7.12641 210.963 0.500226 204.371 0.500226 196.238L0.5 104.529C0.5 96.6678 4.70008 89.3989 11.5284 85.4428L101.24 33.4674C107.58 29.7944 115.416 29.8007 121.75 33.4838Z" fill="#1E67FC"/>
<rect opacity="0.5" x="124.258" y="152.588" width="8" height="28.6457" transform="rotate(-7.73304 124.258 152.588)" fill="#272F77"/>
</g>
<path d="M42.5 89.9629C42.1 85.1629 40.3333 84.2963 39.5 84.4629L36.5 89.9629V103.463L44.5 114.463C49.8333 113.463 59.6 111.463 56 111.463C51.5 111.463 43 95.9629 42.5 89.9629Z" fill="#26282D"/>
<path d="M33.3615 101.628L36.2812 110.347C37.2544 111.886 39.6874 114.963 41.6339 114.963C44.0669 114.963 46.5 111.886 46.5 109.321C46.5 106.757 42.6071 102.653 41.6339 100.089C40.6607 97.5243 42.1205 92.3953 41.6339 88.8049C41.1473 85.2146 40.1741 82.1372 37.2544 83.163C34.3347 84.1888 33.3615 85.2146 31.9017 90.3437C30.7338 94.4469 32.3883 99.5759 33.3615 101.628Z" fill="#61646B"/>
<path d="M26.9997 116.463C22.1997 107.663 23.6664 99.463 24.9997 96.463C26.9997 95.263 28.1664 96.963 28.4998 97.963C29.6998 105.963 38.9998 112.63 43.4998 114.963C44.4998 116.463 45.8998 120.163 43.4998 122.963C41.0998 125.763 33.1664 127.13 29.4998 127.463C27.4998 125.863 25.9998 119.796 25.4998 116.963L26.9997 116.463Z" fill="#26282D"/>
<path d="M122.84 76.9847L125.589 75.7828C125.494 74.733 125.635 73.1432 126.963 75.1819C128.291 77.2206 135.303 81.3581 138.643 83.1719L136.551 93.3638C134.862 92.829 130.556 90.637 126.847 86.1471C123.137 81.6572 122.63 78.1681 122.84 76.9847Z" fill="#F0F4FA"/>
<path d="M97.9137 146.658C97.3368 140.609 101.773 135.237 107.822 134.66L142.22 131.38C148.294 130.801 153.687 135.255 154.266 141.328L154.318 141.878C154.826 147.199 151.229 152.044 145.988 153.098V153.098C134.358 155.438 122.524 156.616 110.661 156.616L108.867 156.616C103.195 156.616 98.4521 152.304 97.9137 146.658V146.658Z" fill="#1F28CF"/>
<rect x="151.267" y="68.8153" width="45.4487" height="27.8249" rx="13" transform="rotate(24.6452 151.267 68.8153)" fill="#1F28CF"/>
<path d="M209.215 72.8776C208.074 64.8589 193.541 62.5192 186.417 62.3517C180.438 63.5213 182.245 70.6604 183.896 74.0838C170.309 77.8117 161.533 94.8478 175.083 93.6691C188.633 92.4904 210.64 82.901 209.215 72.8776Z" fill="#F0F4FA"/>
<path d="M165.5 76.4629C137.5 74.8629 117.833 102.13 111.5 115.963C84.3 102.763 50.8333 109.13 37.5 113.963V123.963C47.5 128.763 72.6667 128.296 84 127.463C104.5 138.963 126 141.463 142.5 137.463C155.7 134.263 159.333 116.796 159.5 108.463C164 106.963 200.5 78.4629 165.5 76.4629Z" fill="#2C6671"/>
<path fill-rule="evenodd" clip-rule="evenodd" d="M139.586 83.4479C144.822 83.3509 155.265 84.1127 159.5 87.963C155.452 94.1154 149.832 108.038 158.682 115.795C159.216 113.037 159.459 110.482 159.5 108.463C164 106.963 200.5 78.4629 165.5 76.4629C155.791 75.9081 147.083 78.8244 139.586 83.4479Z" fill="#F0F4FA"/>
<path d="M126.771 70.4371L126.297 70.2771L126.297 70.2771L126.771 70.4371ZM130.966 70.7585C130.828 70.3999 130.567 69.9856 130.248 69.6164C129.929 69.2474 129.519 68.886 129.062 68.6689C128.599 68.4492 128.035 68.3576 127.491 68.6365C126.964 68.9066 126.571 69.4666 126.297 70.2771L127.245 70.5972C127.479 69.9032 127.75 69.6273 127.947 69.5265C128.127 69.4345 128.347 69.4369 128.633 69.5724C128.924 69.7105 129.228 69.9656 129.491 70.2705C129.755 70.5753 129.946 70.8923 130.034 71.1188L130.966 70.7585ZM126.297 70.2771C125.522 72.57 126.391 74.3735 127.409 75.7904C127.9 76.4748 128.486 77.1439 128.897 77.6728C129.342 78.2463 129.606 78.6823 129.668 79.0463L130.654 78.8797C130.546 78.2407 130.127 77.6263 129.687 77.0594C129.212 76.4478 128.709 75.8863 128.221 75.2069C127.279 73.8963 126.622 72.44 127.245 70.5972L126.297 70.2771Z" fill="#1F28CF"/>
<ellipse cx="124.5" cy="75.463" rx="4" ry="5.5" fill="#DEB6A0"/>
<path d="M123.5 71.963C124.333 71.2964 126.6 70.163 129 70.963" stroke="#DEB6A0" stroke-width="2.5" stroke-linecap="round"/>
<path d="M123.5 74.2382C124.333 73.5715 126.6 72.4382 129 73.2382" stroke="#DEB6A0" stroke-width="2.5" stroke-linecap="round"/>
<path d="M93.5 110.463C100.167 111.796 117 116.063 131 122.463" stroke="#272F77" stroke-width="1.5" stroke-linecap="round"/>
<path d="M130.5 76.463L127 72.963L125 79.463C125.167 79.963 126.8 79.063 128 79.463C129.2 79.863 129.833 81.2963 130.5 80.963V76.463Z" fill="#DEB6A0"/>
<path d="M124 73.963H127.5L129.5 75.463" stroke="#272F77" stroke-width="1.5" stroke-linecap="round"/>
<path d="M172.5 52.463C166.5 52.463 162.833 59.963 162.5 62.963C155.3 68.963 157.833 74.463 160 76.463L174.5 78.963V74.963C178 74.2964 184.8 70.763 184 61.963C183.2 53.163 176.5 52.463 172.5 52.463Z" fill="#DEB6A0"/>
<circle cx="171.25" cy="63.713" r="0.75" fill="#272F77"/>
<circle cx="166.25" cy="61.713" r="0.75" fill="#272F77"/>
<path d="M163.5 64.463L167.5 63.963" stroke="#272F77" stroke-width="1.5" stroke-linecap="round"/>
<path d="M163 68.463C163.667 69.1297 165.8 70.263 169 69.463" stroke="#272F77" stroke-width="1.5" stroke-linecap="round"/>
<rect x="129.5" y="66.963" width="12" height="16" fill="#1F28CF"/>
<path d="M180 75.9631C184.333 73.9631 194.7 70.3631 201.5 71.9631" stroke="#8992AA" stroke-width="1.5" stroke-linecap="round"/>
<mask id="mask1" mask-type="alpha" maskUnits="userSpaceOnUse" x="139" y="76" width="42" height="40">
<path fill-rule="evenodd" clip-rule="evenodd" d="M139.586 83.4479C144.822 83.3509 155.265 84.1127 159.5 87.963C155.452 94.1154 149.832 108.038 158.682 115.795C159.216 113.037 159.459 110.482 159.5 108.463C164 106.963 200.5 78.4629 165.5 76.4629C155.791 75.9081 147.083 78.8244 139.586 83.4479Z" fill="#F0F4FA"/>
</mask>
<g mask="url(#mask1)">
<path d="M152.5 88.4629C165 76.4629 187.2 72.0629 198 88.4629" stroke="#2C6671" stroke-width="4"/>
</g>
<rect x="64.3555" y="29.0063" width="27.0869" height="37.5049" rx="2" transform="rotate(-26.9955 64.3555 29.0063)" fill="#F0F4FA"/>
<path d="M84.3228 20.0038L85.7604 22.8259C86.0111 23.318 86.6133 23.5137 87.1054 23.263L89.9275 21.8254" stroke="#D0D8E5" stroke-linecap="round"/>
<path d="M74.6543 35.4519L87.1862 29.0678" stroke="#D0D8E5" stroke-linecap="round"/>
<path d="M76.5459 39.165L89.0778 32.781" stroke="#D0D8E5" stroke-linecap="round"/>
<path d="M78.4375 42.8782L90.9694 36.4941" stroke="#D0D8E5" stroke-linecap="round"/>
<path d="M87.6822 48.6328L84.7397 47.6765L84.421 48.6573L88.3443 49.9324L91.0767 41.5253L90.0958 41.2065L87.6822 48.6328Z" fill="#20AD83"/>
<rect x="102.332" y="12.7173" width="27.0869" height="37.5049" rx="2" transform="rotate(-13.1218 102.332 12.7173)" fill="#F0F4FA"/>
<path d="M123.875 8.76514L124.594 11.8497C124.719 12.3875 125.257 12.7219 125.794 12.5965L128.879 11.8775" stroke="#D0D8E5" stroke-linecap="round"/>
<path d="M110.784 21.4443L124.481 18.2514" stroke="#D0D8E5" stroke-linecap="round"/>
<path d="M111.73 25.5027L125.427 22.3098" stroke="#D0D8E5" stroke-linecap="round"/>
<path d="M112.676 29.561L126.373 26.3681" stroke="#D0D8E5" stroke-linecap="round"/>
<path d="M120.272 37.3646L117.644 35.7306L117.1 36.6064L120.603 38.785L125.271 31.2783L124.396 30.7337L120.272 37.3646Z" fill="#20AD83"/>
<rect x="141.451" y="4.7616" width="27.0869" height="37.5049" rx="2" transform="rotate(-4.2342 141.451 4.7616)" fill="#F0F4FA"/>
<path d="M163.346 4.18518L163.58 7.34375C163.62 7.89453 164.1 8.30797 164.651 8.26719L167.809 8.03334" stroke="#D0D8E5" stroke-linecap="round"/>
<path d="M148.454 14.6897L162.48 13.6513" stroke="#D0D8E5" stroke-linecap="round"/>
<path d="M148.761 18.8455L162.787 17.807" stroke="#D0D8E5" stroke-linecap="round"/>
<path d="M149.069 23.0013L163.095 21.9629" stroke="#D0D8E5" stroke-linecap="round"/>
<path d="M155.368 31.8846L153.025 29.8643L152.351 30.6455L155.476 33.3392L161.248 26.6439L160.467 25.9705L155.368 31.8846Z" fill="#20AD83"/>
<path fill-rule="evenodd" clip-rule="evenodd" d="M56.1236 44.497L74.3992 68.6397C75.0659 69.5204 74.8924 70.7748 74.0117 71.4415L53.7949 86.7452C52.9142 87.4119 51.6598 87.2384 50.9931 86.3577L27.8425 55.7748C27.1758 54.8941 27.3493 53.6397 28.23 52.973L48.3195 37.7656L48.4468 37.6693C48.4479 37.6684 48.449 37.6676 48.4501 37.6668L50.6676 35.9882C51.5483 35.3215 52.8027 35.495 53.4694 36.3757L57.1374 41.2212C57.804 42.1019 57.6305 43.3563 56.7498 44.023L56.1236 44.497Z" fill="#2B44FF"/>
<path d="M27.168 55.232C26.5847 54.4568 26.6419 53.3746 27.3037 52.6652L40.463 38.5596C41.3116 37.65 42.7757 37.7274 43.5236 38.7214L67.0315 69.9642C67.6148 70.7394 67.5576 71.8215 66.8957 72.5309L53.7364 86.6366C52.8879 87.5462 51.4238 87.4687 50.6759 86.4748L27.168 55.232Z" fill="#1E67FC"/>
<path fill-rule="evenodd" clip-rule="evenodd" d="M42.2965 57.9354C42.4721 57.4886 42.8747 57.1719 43.3504 57.1065L50.0904 56.1806C50.6019 56.1104 51.1133 56.3172 51.4337 56.724L55.1693 61.466C55.5013 61.8874 55.4302 62.4972 55.0104 62.8278L53.1156 64.3314C52.6958 64.662 52.0811 64.5817 51.7491 64.1603L49.6428 61.4865C49.4549 61.2479 49.1544 61.1273 48.8547 61.1702L46.5713 61.4964C46.2288 61.5453 45.9391 61.7735 45.8113 62.0951L44.9595 64.2386C44.8477 64.52 44.8946 64.8403 45.0826 65.0789L47.1889 67.7526C47.5209 68.1741 47.4497 68.7838 47.03 69.1145L45.1299 70.6113C44.7101 70.942 44.1007 70.8684 43.7687 70.4469L40.0244 65.6938C39.7034 65.2864 39.6223 64.7397 39.8114 64.2585L42.2965 57.9354Z" fill="#2B44FF"/>
<path d="M48.3288 63.3591C48.1005 63.0693 48.1494 62.6501 48.438 62.4228C48.7266 62.1954 49.1456 62.2461 49.3738 62.5358C49.6021 62.8256 49.5532 63.2448 49.2646 63.4721C48.976 63.6994 48.557 63.6488 48.3288 63.3591Z" fill="#2B44FF"/>
</svg>
