<svg width="223" height="182" viewBox="0 0 223 182" fill="none" xmlns="http://www.w3.org/2000/svg">
<path opacity="0.2" d="M121.75 3.62025L211.502 55.7885C218.313 59.7473 222.5 67.0032 222.5 74.8483L222.5 166.301C222.5 174.429 215.874 181.019 207.7 181.019L15.3002 181.019C7.1264 181.019 0.500226 174.429 0.500226 166.301L0.5 74.6334C0.5 66.7756 4.70008 59.51 11.5284 55.5557L101.24 3.60381C107.58 -0.0674914 115.416 -0.0612137 121.75 3.62025Z" fill="#1E67FC"/>
<mask id="mask0" mask-type="alpha" maskUnits="userSpaceOnUse" x="0" y="0" width="223" height="182">
<path d="M121.75 3.62025L211.502 55.7885C218.313 59.7473 222.5 67.0032 222.5 74.8483L222.5 166.301C222.5 174.429 215.874 181.019 207.7 181.019L15.3002 181.019C7.12641 181.019 0.500226 174.429 0.500226 166.301L0.5 74.6334C0.5 66.7756 4.70009 59.51 11.5284 55.5557L101.24 3.60381C107.58 -0.0674913 115.416 -0.0612137 121.75 3.62025Z" fill="#1F28CF"/>
</mask>
<g mask="url(#mask0)">
<path opacity="0.1" d="M77.0056 121.947L177.359 95.3709C184.974 93.3541 193.065 95.5244 198.612 101.072L263.279 165.739C269.027 171.486 269.001 180.831 263.221 186.611L127.174 322.658C121.394 328.438 112.049 328.464 106.302 322.716L41.4829 257.897C35.9265 252.341 33.7589 244.234 35.7912 236.609L62.4915 136.438C64.3784 129.359 69.9238 123.822 77.0056 121.947Z" fill="#1E67FC"/>
<rect x="100.53" y="29.486" width="30.73" height="42.5492" rx="2" transform="rotate(-13.6343 100.53 29.486)" fill="#F0F4FA"/>
<path d="M110.208 39.3005L125.714 35.5393" stroke="white" stroke-opacity="0.3" stroke-linecap="round"/>
<path d="M111.322 43.8949L126.829 40.1337" stroke="white" stroke-opacity="0.3" stroke-linecap="round"/>
<path d="M112.437 48.4894L127.943 44.7282" stroke="white" stroke-opacity="0.3" stroke-linecap="round"/>
<rect x="107.288" y="26.9287" width="30.73" height="42.5492" rx="2" transform="rotate(-7.91078 107.288 26.9287)" fill="white"/>
<path d="M132.034 24.6833L132.547 28.3756C132.623 28.9226 133.128 29.3044 133.675 29.2284L137.368 28.7154" stroke="#D0D8E5" stroke-linecap="round"/>
<path d="M115.938 37.6594L131.743 35.4634" stroke="#D0D8E5" stroke-linecap="round"/>
<path d="M116.589 42.3422L132.393 40.1461" stroke="#D0D8E5" stroke-linecap="round"/>
<path d="M117.24 47.0249L133.044 44.8289" stroke="#D0D8E5" stroke-linecap="round"/>
<mask id="mask1" mask-type="alpha" maskUnits="userSpaceOnUse" x="107" y="22" width="37" height="47">
<rect x="107.288" y="26.9287" width="30.73" height="42.5492" rx="2" transform="rotate(-7.91078 107.288 26.9287)" fill="white"/>
</mask>
<g mask="url(#mask1)">
<path d="M126.08 50.9194C118.091 51.8106 117.032 63.9854 116.51 70.0919L140.314 66.9563C138.898 61.2394 134.068 50.0282 126.08 50.9194Z" fill="#6670A0"/>
<path d="M124.34 62.7905C123.814 59.7495 124.489 56.6062 124.892 55.4147C126.459 53.9053 128.715 55.454 129.648 56.417C130.81 57.9031 132.253 63.8323 132.83 66.6111L124.98 67.6451C124.986 67.294 124.867 65.8316 124.34 62.7905Z" fill="#FAC010"/>
<path d="M118.992 48.9945C118.922 51.7108 121.353 52.5028 122.082 52.6245L122.316 52.5937L122.667 49.401L128.21 48.6708L129.435 51.6559C132.78 51.4527 132.12 48.1557 131.372 46.5326C128.752 38.8989 125.14 38.8839 123.662 39.8306C121.186 38.6131 119.079 45.5992 118.992 48.9945Z" fill="#A1A6B3"/>
<path d="M130.67 51.9176C130.853 50.3167 129.402 49.5975 128.654 49.4379C127.626 48.9398 125.036 48.4786 122.896 50.6186C120.222 53.2937 124.936 55.4179 127.054 54.9278C129.171 54.4377 130.44 53.9186 130.67 51.9176Z" fill="#FAC010"/>
<path d="M121.152 52.8132C120.951 51.2906 121.951 50.3023 122.476 49.9985C122.033 50.689 124.158 50.405 124.938 52.3145C127.97 52.5102 129.328 56.1488 130.165 57.1987L130.553 58.1815C130.066 57.6003 129.453 56.6484 126.696 56.3074C123.251 55.8811 121.403 54.7164 121.152 52.8132Z" fill="#FFD760"/>
<path fill-rule="evenodd" clip-rule="evenodd" d="M120.909 43.9429C120.551 44.9302 120.724 46.0579 121.001 46.8081C121.319 48.7563 122.792 52.5252 126.149 52.0145C129.507 51.5038 129.621 47.6057 129.259 45.7204C129.286 44.9284 128.992 43.6972 127.956 42.8432C125.37 43.6811 122.792 43.9338 120.909 43.9429Z" fill="#E7CAB9"/>
<rect x="122.636" y="45.4354" width="0.871109" height="0.871109" rx="0.435554" transform="rotate(-7.50391 122.636 45.4354)" fill="#272F77"/>
<rect x="126.277" y="44.8987" width="0.871109" height="0.871109" rx="0.435554" transform="rotate(-7.50391 126.277 44.8987)" fill="#272F77"/>
<path d="M124.442 48.9478C124.874 49.3914 126.134 49.5 126.586 48.5533" stroke="#272F77" stroke-width="0.8" stroke-linecap="round"/>
</g>
<path d="M87.4828 95.3396C89.6713 104.719 100.901 103.677 106.242 101.983H109.759C111.583 101.723 114.214 101.514 122.656 102.765C133.208 104.328 136.334 96.5121 137.116 88.305C137.741 81.7394 133.468 76.7109 131.254 75.0174C132.426 72.8028 133.208 67.3575 126.955 63.293C120.702 59.2285 114.449 61.5995 112.104 63.293C111.583 61.7297 108.274 59.3067 99.2071 62.1206C90.1403 64.9344 89.9579 76.3201 91.0001 81.6612C88.9158 82.3125 85.2942 85.9601 87.4828 95.3396Z" fill="#272F77"/>
<path fill-rule="evenodd" clip-rule="evenodd" d="M98.1406 140.129L132.685 130.426L143.628 125.345C140.892 116.357 126.432 99.5517 108.455 103.069C99.4004 104.84 89.871 112.694 82.5581 120.448C84.4045 123.869 87.2228 128.275 90.3831 131.29C92.7756 129.516 94.8158 127.46 95.9489 126.127L97.7467 139.071C97.8825 139.413 98.0138 139.766 98.1406 140.129Z" fill="#F0F4FA"/>
<mask id="mask2" mask-type="alpha" maskUnits="userSpaceOnUse" x="82" y="102" width="62" height="39">
<path fill-rule="evenodd" clip-rule="evenodd" d="M98.1406 140.129L132.685 130.426L143.628 125.345C140.892 116.357 126.432 99.5517 108.455 103.069C99.4004 104.84 89.871 112.694 82.5581 120.448C84.4045 123.869 87.2228 128.275 90.3831 131.29C92.7756 129.516 94.8158 127.46 95.9489 126.127L97.7467 139.071C97.8825 139.413 98.0138 139.766 98.1406 140.129Z" fill="#F0F4FA"/>
</mask>
<g mask="url(#mask2)">
<path d="M99.8569 102.287L103.765 126.909" stroke="#FAC010" stroke-width="4"/>
<path d="M126.042 101.896L122.524 128.863" stroke="#FAC010" stroke-width="4"/>
</g>
<path d="M99.8571 121.046C100.17 130.738 97.6425 144.104 96.3398 149.576C91.9627 169.585 95.2976 181.622 97.5122 185.14C111.269 194.832 129.819 189.178 137.375 185.14C138.808 177.063 140.814 159.111 137.375 151.92C133.936 144.73 130.34 134.334 129.559 120.656C119.398 120.656 107.543 120.656 99.8571 121.046Z" fill="#FAC010"/>
<path d="M139.329 146.058C124.635 150.748 105.068 148.533 97.1213 146.84H95.5581C90.5557 156.845 89.5656 164.557 89.6959 167.162C91.8845 168.725 99.7268 170.158 103.374 170.68C105.876 168.804 107.543 161.561 108.064 158.174H124.869L127.996 168.335C134.561 168.647 141.153 166.381 143.237 165.208L139.329 146.058Z" fill="#E87613"/>
<path fill-rule="evenodd" clip-rule="evenodd" d="M127.169 149.664C126.115 149.892 125.444 150.932 125.672 151.987L126.165 154.265H126.432C127.073 154.458 128.39 154.688 130.271 154.76L129.492 151.161C129.264 150.106 128.224 149.436 127.169 149.664Z" fill="#2B44FF"/>
<path d="M126.432 154.265C127.735 154.656 131.825 155.203 137.766 154.265" stroke="#272F77" stroke-width="1.5" stroke-linecap="round"/>
<path d="M104.795 109.073C102.919 103.445 104.902 101.112 106.205 100.852C107.902 99.6938 113.169 97.5417 119.262 99.3715L119.789 99.5517C123.759 103.275 121.13 107.901 120.739 109.073C120.114 105.634 118.486 104.372 118.225 105.805L113.926 118.702C112.624 115.314 109.549 107.993 107.673 105.805C105.797 103.616 104.535 107.64 104.795 109.073Z" fill="#F0F4FA"/>
<path fill-rule="evenodd" clip-rule="evenodd" d="M106.643 103.501L113.926 118.701L119.635 103.377C116.133 102.502 112.377 102.301 108.455 103.069C107.852 103.187 107.248 103.331 106.643 103.501Z" fill="#272F77"/>
<path d="M106.501 103.851C107.439 101.662 107.934 96.6858 108.064 94.4712C108.064 91.3447 117.053 91.7355 117.444 93.6896C117.756 95.2528 119.137 100.854 119.789 103.46C119.268 104.893 117.366 107.837 113.926 108.15C110.487 108.462 107.543 105.414 106.501 103.851Z" fill="#927854"/>
<path d="M107.282 94.0803C103.218 91.2665 101.941 85.8733 101.811 83.5284C101.811 79.7766 104.677 77.2754 106.11 76.4938C106.501 73.3673 109.236 69.85 114.317 69.85C118.381 69.85 120.7 75.3213 121.352 78.057C122.264 78.4478 124.009 80.2456 123.697 84.31C123.384 88.3745 120.179 92.5171 118.616 94.0803C117.704 95.1225 115.333 97.2068 113.145 97.2068C110.956 97.2068 108.325 95.1225 107.282 94.0803Z" fill="#A88D68"/>
<circle cx="108.846" cy="81.1836" r="0.781625" fill="#272F77"/>
<circle cx="117.443" cy="81.5743" r="0.781625" fill="#272F77"/>
<path d="M110.018 89.3906C110.93 89.9117 113.535 90.7194 116.662 89.7814" stroke="#272F77" stroke-width="1.5" stroke-linecap="round"/>
<path d="M113.145 81.5743C113.666 82.356 114.786 84.4664 115.099 86.6549" stroke="#272F77" stroke-width="1.5" stroke-linecap="round"/>
<path d="M132.685 152.702C129.558 145.824 133.857 147.622 134.248 146.84C135.811 143.713 137.765 139.805 141.674 141.759C145.582 143.714 149.49 155.829 149.881 157.392C150.271 158.955 151.053 162.472 149.881 162.863C149.001 163.156 148.511 162.328 148.346 161.793C148.696 163.132 148.454 165.747 146.754 165.99C144.566 166.302 144.018 164.036 144.018 162.863C144.018 163.775 143.628 165.677 142.064 165.99C140.736 166.255 140.254 165.788 140.14 165.401C140.173 165.95 139.822 166.771 138.156 166.771C136.28 166.771 135.811 165.729 135.811 165.208C135.811 164.036 135.811 159.58 132.685 152.702Z" fill="#FAC010"/>
<path d="M110.8 96.8159C111.842 97.2067 114.239 97.7539 115.49 96.8159" stroke="#73542A" stroke-width="1.5" stroke-linecap="round"/>
<path fill-rule="evenodd" clip-rule="evenodd" d="M93.2131 151.53C87.3509 149.315 75.0012 142.463 72.5 132.771C74.7198 129.538 78.2552 125.01 82.558 120.448C84.4043 123.87 87.2226 128.275 90.383 131.29C88.0994 132.983 85.4949 134.42 83.0519 134.725C86.1784 137.07 93.1349 142.932 95.9487 147.622C98.7626 152.311 95.2974 152.181 93.2131 151.53ZM97.7465 139.071L97.9028 140.196L98.1405 140.13C98.0136 139.766 97.8823 139.413 97.7465 139.071Z" fill="#927854"/>
<path d="M99.8567 138.242L93.2129 145.277C92.5876 146.527 94.5156 149.706 95.5578 151.139C97.6421 150.748 101.889 148.716 102.202 143.714C102.514 138.711 100.769 137.982 99.8567 138.242Z" fill="#A88D68"/>
<path d="M99.0752 140.587C99.8568 139.154 102.436 136.835 106.501 139.024" stroke="#A88D68" stroke-width="3" stroke-linecap="round"/>
<path d="M99.8569 142.541C100.508 141.499 102.436 139.727 104.937 140.978C107.439 142.228 108.325 142.281 108.455 142.15" stroke="#A88D68" stroke-width="3" stroke-linecap="round"/>
<path d="M100.248 143.714C100.769 143.193 102.123 142.229 103.374 142.541C104.937 142.932 107.148 143.714 108.192 143.714" stroke="#A88D68" stroke-width="3" stroke-linecap="round"/>
<path d="M99.8569 146.058C100.639 145.407 102.827 144.495 105.328 146.058" stroke="#A88D68" stroke-width="2.5" stroke-linecap="round"/>
<path fill-rule="evenodd" clip-rule="evenodd" d="M149.973 157.768C150.376 159.457 150.967 162.501 149.881 162.863C149.002 163.156 148.511 162.327 148.346 161.793C148.697 163.132 148.454 165.747 146.754 165.99C144.566 166.302 144.019 164.036 144.019 162.863C144.019 163.775 143.628 165.677 142.065 165.99C140.736 166.255 140.255 165.788 140.14 165.401C140.173 165.95 139.822 166.771 138.156 166.771C136.28 166.771 135.812 165.729 135.812 165.208C135.812 164.699 135.812 163.573 135.556 161.898C136.841 161.666 138.592 161.445 139.329 161.691V160.518C140.501 160.388 143.002 160.206 143.628 160.518V160.543C143.766 160.043 144.563 159.489 147.536 159.737V158.564C147.406 158.434 148.005 158.095 149.881 157.783C149.912 157.777 149.942 157.773 149.973 157.768Z" fill="#272F77"/>
<path d="M132.685 152.702C133.597 155.308 135.499 161.222 135.812 164.036C136.124 166.85 137.766 167.032 138.547 166.771C139.118 166.843 139.884 166.602 140.203 165.599M140.203 165.599C140.468 164.77 140.427 163.422 139.72 161.3C140.042 162.342 140.59 164.661 140.203 165.599ZM140.203 165.599C140.824 165.99 142.299 166.459 143.237 165.208C143.595 164.731 143.734 163.853 143.755 162.863M143.237 157.783C143.237 157.783 143.803 160.612 143.755 162.863M143.755 162.863C144.104 164.166 145.269 166.615 147.145 165.99C149.49 165.208 147.145 154.656 145.582 151.921" stroke="#1F28CF" stroke-width="1.5" stroke-linecap="round"/>
<path d="M107.224 100.134C104.568 100.436 102.919 103.445 104.795 109.073C104.534 107.64 105.797 103.616 107.673 105.805C109.549 107.993 112.623 115.314 113.926 118.701L118.225 105.805C118.485 104.372 120.114 105.634 120.739 109.073C121.13 107.901 123.759 103.275 119.788 99.5516" stroke="#272F77" stroke-linecap="round"/>
<path fill-rule="evenodd" clip-rule="evenodd" d="M99.3333 151.039C98.3965 150.984 97.5926 151.699 97.5376 152.636L97.2637 157.31C98.2429 157.616 99.3671 157.794 100.641 157.772L100.93 152.835C100.985 151.898 100.27 151.094 99.3333 151.039Z" fill="#1E67FC"/>
<path fill-rule="evenodd" clip-rule="evenodd" d="M95.167 147.231C94.0878 147.231 93.2129 148.106 93.2129 149.185V154.659C94.0343 155.646 95.3217 156.665 97.1042 157.258C97.1153 157.174 97.121 157.088 97.121 157.001V149.185C97.121 148.106 96.2461 147.231 95.167 147.231Z" fill="#1F28CF"/>
<path d="M92.4316 153.484C93.6041 155.829 97.9812 159.737 106.11 156.61" stroke="#272F77" stroke-width="1.5" stroke-linecap="round"/>
<path d="M142.456 154.656C149.646 151.842 144.931 133.683 141.674 124.954L130.34 126.518C131.382 137.07 135.265 157.47 142.456 154.656Z" fill="#A88D68"/>
<path d="M141.01 155.09C130.952 154.385 123.226 135.185 120.62 125.672L124.459 124.289C127.245 127.529 133.829 135.364 137.882 140.779C141.934 146.194 141.656 152.576 141.01 155.09Z" fill="#A88D68"/>
<path d="M121.289 113.528C120.697 112.736 120.882 111.055 121.049 110.314C117.985 110.01 118.773 114.634 119.55 116.984C119.425 117.437 118.608 118.119 116.336 117.224C114.064 116.329 113.493 117.753 113.491 118.577C111.908 118.771 112.414 120.716 112.865 121.665C110.787 122.352 111.501 123.763 112.117 124.382C111.704 124.793 113.741 127.797 116.307 129.583C118.873 131.368 121.33 130.666 122.238 130.091L126.693 127.383C125.314 125.204 124.812 121.693 124.733 120.21C123.747 119.219 122.026 115.343 121.289 113.528Z" fill="#A88D68"/>
</g>
<g opacity="0.9" clip-path="url(#clip0)">
<path opacity="0.2" fill-rule="evenodd" clip-rule="evenodd" d="M61.8298 110.83C68.9564 108.133 72.8087 99.4657 66.6451 96.3839L57.0145 93.3021C54.1254 92.3391 52.9697 92.1465 50.4657 94.843C48.1544 97.5396 47.9618 98.6953 43.9169 96.5765C39.2943 94.2652 30.6267 85.0198 28.508 80.2046C26.7745 75.9671 27.9302 75.9671 30.8194 73.8484C33.7085 71.537 33.7085 70.3814 32.9381 67.4922L30.4341 57.669C27.7376 51.1202 18.6848 54.5872 15.6031 61.3286C6.55031 80.7824 41.7982 118.534 61.8298 110.83Z" fill="#789EEB"/>
<mask id="mask3" mask-type="alpha" maskUnits="userSpaceOnUse" x="14" y="48" width="63" height="64">
<path d="M15.6031 61.3286C6.55031 80.7823 41.7982 118.534 61.8298 110.83C102.973 71.3247 44.8212 25.1628 15.6031 61.3286Z" fill="#272F77"/>
</mask>
<g mask="url(#mask3)">
<path fill-rule="evenodd" clip-rule="evenodd" d="M32.7572 84.3072C32.629 91.12 32.0572 102.578 31.0965 107.498C33.5191 114.319 56.7215 114.304 56.0189 111.208C55.0553 106.963 54.3147 101.023 53.833 96.574C54.0504 94.5895 54.2628 92.7377 54.4609 91.0106C54.8184 87.8938 55.1294 85.1832 55.3389 82.8313C56.6124 83.5558 57.9688 84.1008 58.7219 84.3518C61.6553 83.8629 62.796 80.4814 62.9997 78.8517L55.0216 72.8682C54.3426 70.867 53.0263 69.6873 50.7775 69.074C50.7134 69.0518 50.6475 69.0331 50.5801 69.0176L42.2219 66.6296C41.5656 66.9235 40.9205 67.1604 40.2947 67.3903C36.2589 68.873 33.0252 70.0609 32.7572 84.3072Z" fill="#5A6396"/>
</g>
<path d="M72.1666 82.5186C68.7443 80.0741 64.2221 79.463 62.3888 79.463L59.9443 82.5186C62.8777 84.963 68.9073 85.9815 71.5554 86.1852C71.5554 88.0186 74.611 94.1297 75.8332 93.5186C77.0554 92.9075 79.4999 90.463 78.8888 88.0186C78.2777 85.5741 76.4443 85.5741 72.1666 82.5186Z" fill="#DEB6A0"/>
<mask id="mask4" mask-type="alpha" maskUnits="userSpaceOnUse" x="59" y="79" width="20" height="15">
<path d="M72.1666 82.5186C68.7443 80.0741 64.2221 79.463 62.3888 79.463L59.9443 82.5186C62.8777 84.963 68.9073 85.9815 71.5554 86.1852C71.5554 88.0186 74.611 94.1297 75.8332 93.5186C77.0554 92.9075 79.4999 90.463 78.8888 88.0186C78.2777 85.5741 76.4443 85.5741 72.1666 82.5186Z" fill="#DEB6A0"/>
</mask>
<g mask="url(#mask4)">
<path d="M70.9443 88.0186C70.9443 85.9816 72.0443 82.1519 76.4443 83.1297" stroke="black"/>
</g>
<ellipse cx="72.1666" cy="84.3519" rx="1.22222" ry="1.22222" fill="#F0F4FA"/>
<path d="M61.1667 87.4074C57.2556 87.8963 45.2778 90.8703 39.7778 92.2963C40.3889 100.852 45.8889 98.4074 48.9445 96.5741C51.3889 95.1074 59.3334 91.2778 63.0001 89.8519C64.0186 88.6296 65.0778 86.9185 61.1667 87.4074Z" fill="#E7CAB9"/>
<path d="M67.2777 84.3519C65.3221 81.4186 61.574 85.5741 59.9443 88.0186C60.148 88.8334 61.0443 90.3408 62.9999 89.8519C65.4443 89.2408 69.7221 88.0186 67.2777 84.3519Z" fill="#E7CAB9"/>
<path d="M66.6665 86.1852C67.685 85.9815 69.4776 85.9408 70.9443 84.963" stroke="#E7CAB9" stroke-linecap="round"/>
<path d="M66.0557 83.7408C66.0557 84.5557 66.0557 86.1853 70.3334 84.352" stroke="#272F77" stroke-linecap="round"/>
<rect x="41.9844" y="56.4271" width="7.1852" height="13.3619" rx="3.5926" fill="#DEB6A0"/>
<path d="M51.3616 59.978C51.777 59.1278 52.0101 58.1724 52.0101 57.1625C52.0101 53.6159 48.8502 48.5931 43.0824 49.5422C39.1667 50.1866 38.5137 53.6159 38.5137 57.1625C38.7616 60.6287 41.7303 67.468 49.0107 67.0954C51.0723 66.6776 52.2686 63.9947 51.6826 61.103C51.603 60.7104 51.4946 60.3341 51.3616 59.978Z" fill="#E7CAB9"/>
<path d="M47.4243 62.5299C47.8769 63.1364 49.3864 63.4691 50.0857 62.3942" stroke="#272F77" stroke-linecap="round"/>
<ellipse rx="1.00958" ry="1.74218" transform="matrix(0.900576 -0.434699 0.434698 0.900576 39.6109 60.082)" fill="#E7CAB9"/>
<path d="M44.1665 56.7611C44.1973 57.5377 44.6325 59.0819 46.1274 59.045C47.6223 59.0081 47.9961 57.507 47.9961 56.7611V56.415" stroke="#272F77"/>
<path d="M53.0305 56.1017C53.0881 56.8769 52.8613 58.6384 51.3719 58.7714C49.8824 58.9044 49.3407 57.4555 49.256 56.7144L49.2168 56.3706" stroke="#272F77"/>
<path d="M43.9995 56.6678C44.436 56.3597 45.8174 55.8564 47.851 56.3083H49.0065C49.4772 56.0259 50.999 55.5637 53.3202 55.9746" stroke="#272F77" stroke-linecap="round"/>
<path d="M39.5552 57.9306L43.5336 56.7229" stroke="#272F77" stroke-linecap="round"/>
</g>
<path d="M131 132.463C134.667 134.963 142.2 140.763 143 143.963" stroke="#272F77" stroke-width="1.5" stroke-linecap="round"/>
<path d="M158.062 137.77C158.062 135.008 160.301 132.77 163.062 132.77H208.037C210.798 132.77 213.037 135.008 213.037 137.77V160.97C213.037 163.731 210.798 165.97 208.037 165.97H205.884V173.241L196.577 165.97H163.062C160.301 165.97 158.062 163.731 158.062 160.97V137.77Z" fill="#789EEB"/>
<mask id="mask5" mask-type="alpha" maskUnits="userSpaceOnUse" x="157" y="88" width="61" height="86">
<path d="M157.23 93.9827C157.23 91.2212 159.469 88.9827 162.23 88.9827H212.5C215.261 88.9827 217.5 91.2212 217.5 93.9827V160.992C217.5 163.753 215.261 165.992 212.5 165.992H209.658V173.963L199.455 165.992H162.23C159.469 165.992 157.23 163.753 157.23 160.992V93.9827Z" fill="#C4C4C4"/>
</mask>
<g mask="url(#mask5)">
<path d="M164.288 132.687H172.659C167.389 151.866 166.835 157.013 166.792 166.56L179.983 172.969L194.5 166.56C194.943 165.295 191.23 148.88 191.23 148.88C191.23 148.88 192.472 143.505 193.339 138.395C193.993 136.259 198.031 131.484 200.123 126.671C202.216 121.858 201.693 119.608 201.17 119.085L195.546 108.492C193.244 106.922 191.71 109.146 191.23 110.453L194.563 121.083L191.23 126.375C189.617 124.631 183.645 123.82 172.659 124.971C161.673 126.122 162.501 130.594 164.288 132.687Z" fill="#6670A0"/>
<path d="M196.541 103.897C196.801 102.599 196.541 101.119 196.541 101.119C196.356 100.008 195.986 98.3416 195.986 98.3416C195.43 98.3416 195.43 101.675 195.43 102.23C195.43 103.503 195.127 99.285 194.932 97.65C194.903 97.4073 194.696 97.2306 194.451 97.2306H193.153C192.876 97.2306 192.653 97.4535 192.653 97.7296V102.23C192.653 101.128 192.399 99.9492 192.207 99.2602C192.146 99.0417 191.944 98.8972 191.717 98.8972C191.357 98.8972 191.097 99.2527 191.155 99.6076C191.45 101.385 191.148 104.109 190.986 105.564C189.653 104.675 187.653 103.341 187.653 105.008C188.023 105.008 188.875 105.23 189.319 106.119C189.764 107.008 191.356 108.712 192.097 109.452L195.43 108.897C195.615 108.156 196.097 106.119 196.541 103.897Z" fill="#BE9C88"/>
<path fill-rule="evenodd" clip-rule="evenodd" d="M190.964 126.309C191.917 124.344 192.472 121.981 192.472 119.439C192.472 112.61 188.462 107.074 183.514 107.074C178.566 107.074 174.556 112.61 174.556 119.439C174.556 121.981 175.111 124.344 176.064 126.309L176.566 126.456C181.274 127.837 186.286 127.786 190.964 126.309V126.309Z" fill="#272F77"/>
</g>
<path d="M193.906 97.7126L194.274 101.689" stroke="#272F77" stroke-linecap="round"/>
<path d="M192.358 98.4993L192.731 101.689" stroke="#272F77" stroke-linecap="round"/>
<path d="M195.458 98.4886L195.511 101.7" stroke="#272F77" stroke-linecap="round"/>
<defs>
<clipPath id="clip0">
<rect width="88" height="88" fill="white" transform="translate(13.5 29.963)"/>
</clipPath>
</defs>
</svg>
