<svg width="78" height="88" viewBox="0 0 78 88" fill="none" xmlns="http://www.w3.org/2000/svg">
<rect width="78" height="88" fill="white"/>
<path d="M35.9288 1.75342C38.0061 0.562011 40.5655 0.56201 42.6428 1.75342L74.4153 19.976C76.4927 21.1674 77.7723 23.3692 77.7723 25.752V62.1971C77.7723 64.5799 76.4927 66.7818 74.4153 67.9732L42.6428 86.1957C40.5655 87.3871 38.0061 87.3871 35.9288 86.1957L4.15621 67.9732C2.07888 66.7818 0.799194 64.5799 0.799194 62.1971V25.752C0.799194 23.3692 2.07888 21.1674 4.15621 19.976L35.9288 1.75342Z" fill="#F0F4FA"/>
<path d="M24.4277 42.6552L24.4277 31.9378C27.8799 32.0553 34.5154 31.0118 39.5297 25.993C44.5439 31.0118 51.1795 32.0553 54.6317 31.9378L54.6317 42.6552C54.6318 48.8197 51.7271 53.7329 48.3345 57.1226C46.6387 58.817 44.8326 60.1181 43.2337 60.9918C41.6069 61.8808 40.2806 62.2806 39.5299 62.2806V62.9148L39.5295 62.9147V62.2806C38.7788 62.2806 37.4524 61.8808 35.8257 60.9918C34.2268 60.1181 32.4207 58.817 30.7249 57.1226C27.3322 53.7329 24.4276 48.8197 24.4277 42.6552Z" stroke="#1E67FC" stroke-width="1.46152"/>
<path d="M36.7362 47.3787L33.0703 43.7127L31.8483 44.9347L36.7362 49.8226L47.2104 39.3485L45.9884 38.1265L36.7362 47.3787Z" fill="#FFB2AC"/>
</svg>
