<svg width="708" height="347" viewBox="0 0 708 347" fill="none" xmlns="http://www.w3.org/2000/svg">
<g clip-path="url(#clip0)">
<path opacity="0.5" d="M231.329 219.136L365.553 297.153C375.709 303.056 381.963 313.861 382 325.554C382 325.524 382 325.495 382 325.465L382 325.657C382 325.623 382 325.588 382 325.554C381.93 337.65 372.047 347.435 359.867 347.435L72.1336 347.435C59.9098 347.435 50.0003 337.58 50.0003 325.424L50 325.336C50 313.584 56.2812 302.719 66.493 296.805L200.657 219.111C210.138 213.621 221.857 213.63 231.329 219.136Z" fill="#89C5CC"/>
<path opacity="0.5" d="M533.242 235.181L650.276 303.206C659.131 308.353 664.585 317.774 664.617 327.97C664.617 327.944 664.617 327.918 664.617 327.892L664.617 328.06C664.617 328.03 664.617 328 664.617 327.97C664.556 338.517 655.939 347.048 645.318 347.048L394.435 347.048C383.776 347.048 375.136 338.456 375.136 327.857L375.135 327.78C375.135 317.533 380.612 308.059 389.516 302.903L506.498 235.159C514.765 230.372 524.983 230.38 533.242 235.181Z" fill="#AEC9FD"/>
<path d="M7.68717 184.841C7.95031 184.187 8.54261 183.723 9.24094 183.626L19.9219 182.131C20.6202 182.033 21.3185 182.315 21.7537 182.872L28.4098 191.383C28.845 191.939 28.951 192.685 28.6878 193.339L24.663 203.345C24.3998 203.999 23.8075 204.462 23.1092 204.56L12.4283 206.055C11.7299 206.153 11.0316 205.87 10.5965 205.314L3.94035 196.803C3.50517 196.247 3.39919 195.501 3.66234 194.847L7.68717 184.841Z" fill="#1E67FC"/>
<path d="M359.169 127.386C359.432 126.732 360.024 126.269 360.723 126.171L371.404 124.676C372.102 124.578 372.8 124.861 373.235 125.417L379.892 133.928C380.327 134.485 380.433 135.23 380.17 135.885L376.145 145.89C375.882 146.545 375.289 147.008 374.591 147.106L363.91 148.601C363.212 148.698 362.513 148.416 362.078 147.859L355.422 139.348C354.987 138.792 354.881 138.046 355.144 137.392L359.169 127.386Z" fill="#1E67FC"/>
<path d="M276.998 120.947C277.773 120.505 278.727 120.505 279.502 120.947L291.352 127.72C292.127 128.162 292.604 128.981 292.604 129.866V143.41C292.604 144.296 292.127 145.114 291.352 145.557L279.502 152.329C278.727 152.772 277.773 152.772 276.998 152.329L265.148 145.557C264.374 145.114 263.896 144.296 263.896 143.41V129.866C263.896 128.981 264.374 128.162 265.148 127.72L276.998 120.947Z" fill="#1E67FC"/>
<path d="M202.227 138.991C202.618 139.3 202.815 139.794 202.744 140.287L201.66 147.831C201.589 148.324 201.26 148.742 200.798 148.926L193.733 151.746C193.271 151.931 192.745 151.854 192.354 151.545L186.373 146.821C185.982 146.512 185.785 146.018 185.856 145.525L186.941 137.981C187.012 137.488 187.34 137.07 187.802 136.886L194.868 134.066C195.329 133.882 195.855 133.958 196.246 134.267L202.227 138.991Z" fill="#1E67FC"/>
<path d="M607.444 168.073C607.835 168.382 608.032 168.876 607.961 169.369L606.876 176.913C606.805 177.407 606.477 177.824 606.015 178.008L598.949 180.828C598.487 181.013 597.962 180.936 597.571 180.627L591.59 175.903C591.199 175.595 591.001 175.101 591.072 174.607L592.157 167.063C592.228 166.57 592.556 166.153 593.018 165.968L600.084 163.148C600.546 162.964 601.072 163.041 601.463 163.349L607.444 168.073Z" fill="#1E67FC"/>
<path d="M481.426 97.3511C481.817 97.66 482.015 98.1541 481.944 98.6473L480.859 106.191C480.788 106.684 480.46 107.102 479.998 107.286L472.932 110.106C472.47 110.291 471.945 110.214 471.554 109.905L465.573 105.181C465.181 104.872 464.984 104.378 465.055 103.885L466.14 96.3412C466.211 95.848 466.539 95.4305 467.001 95.2462L474.067 92.4261C474.529 92.2417 475.054 92.3184 475.445 92.6273L481.426 97.3511Z" fill="#1E67FC"/>
<circle cx="52.1366" cy="229.134" r="19.3611" fill="#1E67FC"/>
<circle cx="131.14" cy="166.291" r="11.3496" fill="#1E67FC"/>
<circle cx="96.0891" cy="120.378" r="8.3453" fill="#1E67FC"/>
<circle cx="548.345" cy="207.35" r="8.3453" fill="#1E67FC"/>
<circle cx="548.345" cy="120.615" r="8.3453" fill="#1E67FC"/>
<ellipse cx="403.59" cy="189.086" rx="11.3849" ry="10.9295" fill="#1E67FC"/>
<path d="M170.349 211.162C172.218 211.762 173.625 213.314 174.041 215.232L176.86 228.266C177.172 229.705 176.692 231.201 175.601 232.189L175.31 232.453C174.22 233.442 172.685 233.774 171.283 233.324L157.831 229.005C156.429 228.555 155.374 227.391 155.063 225.952L152.075 212.144C151.764 210.705 152.244 209.209 153.334 208.22L153.625 207.957C154.716 206.968 156.251 206.636 157.653 207.086L170.349 211.162Z" fill="#1E67FC"/>
<path d="M651.252 167.288C652.234 165.588 654.047 164.541 656.01 164.541L669.346 164.54C670.818 164.54 672.178 165.325 672.914 166.6L673.11 166.94C673.846 168.215 673.846 169.785 673.11 171.06L666.045 183.295C665.309 184.57 663.949 185.355 662.476 185.356L648.348 185.357C646.876 185.357 645.516 184.571 644.78 183.297L644.583 182.957C643.847 181.682 643.847 180.111 644.584 178.836L651.252 167.288Z" fill="#1E67FC"/>
<path d="M261.718 181.652C262.702 180.668 264.137 180.283 265.482 180.643L274.617 183.09C275.626 183.361 276.413 184.148 276.684 185.157L276.756 185.426C277.026 186.434 276.737 187.51 275.999 188.248L268.914 195.333C268.175 196.071 267.099 196.359 266.091 196.089L256.412 193.496C255.404 193.226 254.616 192.439 254.346 191.43L254.274 191.161C254.003 190.153 254.292 189.077 255.03 188.339L261.718 181.652Z" fill="#1E67FC"/>
<path d="M480.501 159.066C480.862 160.411 480.477 161.845 479.493 162.83L472.806 169.518C472.068 170.256 470.992 170.544 469.983 170.274L469.714 170.202C468.706 169.932 467.918 169.144 467.648 168.136L465.056 158.457C464.785 157.449 465.074 156.373 465.812 155.634L472.897 148.549C473.635 147.81 474.711 147.522 475.719 147.792L475.988 147.864C476.996 148.134 477.784 148.922 478.054 149.931L480.501 159.066Z" fill="#1E67FC"/>
<path d="M397.102 295.229C398.746 281.755 393.679 269.349 390.941 264.83C386.148 264.283 376.563 264.83 376.563 271.403C376.563 277.976 382.04 287.835 384.779 291.942C385.765 297.529 382.725 313.714 381.082 321.109L387.654 328.092C390.119 322.752 395.459 308.703 397.102 295.229Z" fill="#957648"/>
<path d="M297.28 292.193C297.609 281.019 308.098 266.724 313.301 260.973C319.326 261.52 330.143 265.409 325.214 276.583C320.285 287.756 313.575 291.645 310.836 292.193C311.494 297.122 322.065 313.691 327.268 321.359L319.874 326.288C303.771 316.101 298.102 299.313 297.28 292.193Z" fill="#957648"/>
<path d="M330.554 239.201C316.094 240.844 312.753 254.4 312.89 260.973L310.426 263.848L308.372 267.135L323.982 277.404C324.639 287.263 326.446 311.637 328.911 320.127L378.206 312.322V270.421L391.351 265.081C393.323 247.663 381.492 241.392 375.33 240.433C358.899 233.203 338.633 236.188 330.554 239.201Z" fill="#F0F4FA"/>
<circle r="4.89067" transform="matrix(-1 0 0 1 342.839 211.585)" fill="#957648"/>
<path d="M376.724 203.551L371.484 202.503V201.105L369.388 195.516H372.183H375.676L379.169 196.913L381.615 199.009L382.313 201.105L381.615 202.503L379.169 203.551H376.724Z" fill="#272F77"/>
<rect width="17.4667" height="37.728" rx="8.73333" transform="matrix(-1 0 0 1 363.1 206.694)" fill="#876739"/>
<path d="M357.405 232.157C350.475 230.661 344.354 218.121 341.977 209.087C341.25 206.323 341.902 203.434 343.387 200.993L346.132 196.478C348.577 192.458 353.085 190.084 357.721 190.885C363.297 191.848 369.289 193.5 370.942 195.997C372.67 198.61 372.727 202.341 372.33 205.25C372.042 207.354 371.923 209.516 371.806 211.638L371.799 211.764C371.458 217.951 368.449 227.723 366.429 230.471C364.694 232.832 360.529 232.832 357.405 232.157Z" fill="#957648"/>
<circle r="1.048" transform="matrix(-1 0 0 1 359.257 207.742)" fill="#272F77"/>
<path d="M341.152 196.215C339.196 202.363 342.899 212.284 344.995 216.476V217.175L347.44 216.476C343.248 203.341 351.283 198.194 355.824 197.263C351.749 194.351 343.108 190.066 341.152 196.215Z" fill="#272F77"/>
<circle r="1.048" transform="matrix(-1 0 0 1 367.641 207.742)" fill="#272F77"/>
<path d="M364.148 209.489C366.105 212.159 369.168 215.786 367.114 217.524C365.77 218.661 362.751 217.524 362.751 217.524" stroke="#272F77" stroke-width="1.5" stroke-linecap="round"/>
<path d="M362.751 198.311C355.764 201.664 348.894 201.105 346.332 200.407C355.834 195.376 367.991 195.073 372.881 195.55C370.028 195.62 366.631 196.448 362.751 198.311Z" fill="#272F77"/>
<path d="M342.354 204.158C351.756 196.19 366.058 194.811 372.183 195.482C370.123 189.988 363.972 181.438 352.278 185.313C340.973 189.059 340.025 198.546 340.76 203.635C340.869 204.39 341.772 204.651 342.354 204.158Z" fill="#272F77"/>
<path d="M346.332 200.406C348.894 201.105 355.764 201.664 362.751 198.31C366.631 196.448 370.028 195.62 372.882 195.55C376.451 195.463 379.169 196.563 380.916 198.31C384.06 201.454 381.615 204.598 374.279 203.201L372.243 202.852" stroke="#1E67FC" stroke-width="1.5" stroke-linecap="round"/>
<path d="M365.305 221.894C363.778 222.529 361.981 222.559 360.316 221.835C359.654 221.547 359.064 221.163 358.559 220.706" stroke="#272F77" stroke-width="1.5" stroke-linecap="round"/>
<path d="M324.392 324.234C326.446 324.782 328.667 324.127 329.981 314.597C331.624 302.684 336.716 277.404 341.235 265.902L377.795 264.67C378.651 275.188 380.928 296.806 383.746 307.392C383.92 308.048 383.326 311.305 382.761 314.42L381.903 320.537L383.076 323.333C384.68 325.634 387.245 327.141 387.935 334.915C388.593 342.327 389.024 350.374 388.886 357.919C388.476 380.513 323.571 378.048 321.928 363.259C320.284 348.471 321.106 331.218 324.392 324.234Z" fill="#F0F4FA"/>
<path d="M328.09 338.612C321.517 335.983 319.326 328.479 319.052 325.056C319.463 322.728 321.517 318.565 326.446 320.537C331.376 322.509 337.812 327.11 340.413 329.164C339.044 333.409 334.662 341.241 328.09 338.612Z" fill="#957648"/>
<path d="M338.359 329.985C340.276 330.67 345.178 332.779 349.451 335.737" stroke="#957648" stroke-width="4" stroke-linecap="round"/>
<path d="M334.662 332.45C336.031 332.998 339.509 334.915 342.467 338.201L347.807 341.898" stroke="#957648" stroke-width="4.5" stroke-linecap="round"/>
<path d="M334.251 335.736C335.073 336.147 337.702 337.708 340.002 340.666C341.235 341.898 343.7 343.952 345.343 345.185" stroke="#957648" stroke-width="4" stroke-linecap="round"/>
<path d="M329.733 337.79C330.691 338.749 333.019 341.405 334.662 344.363L336.716 346.828" stroke="#957648" stroke-width="3.5" stroke-linecap="round"/>
<ellipse cx="384.795" cy="326.308" rx="4.1079" ry="7.16271" transform="rotate(-33.9944 384.795 326.308)" fill="#957648"/>
<path d="M384.171 324.447C383.722 326.04 381.61 329.991 376.76 333.059" stroke="#957648" stroke-width="4.5" stroke-linecap="round"/>
<path d="M385.912 327.932C385.463 329.524 383.351 333.475 378.5 336.543" stroke="#957648" stroke-width="4.5" stroke-linecap="round"/>
<path d="M388.065 331.218V334.621C388.065 335.318 387.828 335.999 387.343 336.499C386.307 337.566 384.671 338.968 383.135 339.434" stroke="#957648" stroke-width="3.5" stroke-linecap="round"/>
<path d="M383.135 323.002L380.789 322.122C380.197 321.9 379.536 321.971 379.005 322.312L374.098 325.467" stroke="#957648" stroke-width="4" stroke-linecap="round"/>
<path d="M448.674 234.593C451.903 248.432 468.47 246.894 476.35 244.396H481.54C484.231 244.011 488.113 243.704 500.567 245.549C516.136 247.855 520.748 236.323 521.902 224.215C522.824 214.528 516.52 207.109 513.253 204.61C514.982 201.343 516.136 193.309 506.91 187.313C497.685 181.316 488.459 184.814 484.999 187.313C484.231 185.006 479.349 181.431 465.972 185.583C452.595 189.734 452.326 206.532 453.863 214.413C450.788 215.374 445.445 220.755 448.674 234.593Z" fill="#272F77"/>
<path fill-rule="evenodd" clip-rule="evenodd" d="M464.398 300.675L515.365 286.359L531.509 278.863C527.473 265.601 506.139 240.808 479.616 245.997C466.257 248.611 452.197 260.198 441.408 271.638C444.132 276.685 448.29 283.185 452.953 287.633C456.483 285.016 459.493 281.983 461.165 280.016L463.817 299.113C464.017 299.617 464.211 300.139 464.398 300.675Z" fill="#1E67FC"/>
<path d="M466.931 272.52C467.392 286.82 463.663 306.539 461.741 314.612C455.283 344.133 460.204 361.893 463.471 367.082C483.767 381.381 511.136 373.04 522.284 367.082C524.398 355.166 527.358 328.681 522.284 318.071C517.21 307.462 511.905 292.124 510.752 271.944C495.76 271.944 478.27 271.944 466.931 272.52Z" fill="#1E67FC" stroke="#1E67FC"/>
<path d="M506.139 321.531C508.061 322.108 514.096 322.915 522.86 321.531" stroke="#272F77" stroke-width="1.5" stroke-linecap="round"/>
<path d="M474.216 254.856C471.449 246.553 474.375 243.111 476.297 242.726C478.8 241.018 486.572 237.842 495.561 240.542L496.337 240.808C502.195 246.302 498.317 253.126 497.74 254.856C496.818 249.782 494.415 247.919 494.031 250.034L487.688 269.061C485.766 264.064 481.23 253.263 478.463 250.034C475.695 246.805 473.832 252.742 474.216 254.856Z" fill="#1E67FC"/>
<path fill-rule="evenodd" clip-rule="evenodd" d="M476.942 246.635L487.688 269.061L496.111 246.451C490.943 245.16 485.403 244.864 479.615 245.997C478.727 246.171 477.835 246.384 476.942 246.635Z" fill="#272F77"/>
<path d="M476.733 247.15C478.117 243.921 478.847 236.579 479.039 233.312C479.039 228.699 492.301 229.276 492.878 232.159C493.339 234.465 495.376 242.73 496.337 246.574C495.568 248.688 492.762 253.032 487.688 253.493C482.614 253.954 478.271 249.457 476.733 247.15Z" fill="#DEB6A0"/>
<path d="M477.886 232.736C471.89 228.584 470.006 220.627 469.814 217.168C469.814 211.632 474.042 207.942 476.157 206.789C476.733 202.176 480.769 196.987 488.265 196.987C494.262 196.987 497.683 205.059 498.644 209.095C499.989 209.672 502.565 212.324 502.103 218.321C501.642 224.317 496.914 230.429 494.608 232.736C493.262 234.273 489.764 237.348 486.535 237.348C483.306 237.348 479.424 234.273 477.886 232.736Z" fill="#E7CAB9"/>
<circle cx="480.193" cy="213.708" r="1.15319" fill="#272F77"/>
<circle cx="492.877" cy="214.285" r="1.15319" fill="#272F77"/>
<path d="M481.922 225.816C483.267 226.585 487.111 227.777 491.724 226.393" stroke="#272F77" stroke-width="1.5" stroke-linecap="round"/>
<path d="M486.535 214.284C487.304 215.437 488.956 218.551 489.418 221.78" stroke="#272F77" stroke-width="1.5" stroke-linecap="round"/>
<path d="M483.075 236.772C484.613 237.348 488.149 238.156 489.994 236.772" stroke="#B9947F" stroke-width="1.5" stroke-linecap="round"/>
<path fill-rule="evenodd" clip-rule="evenodd" d="M457.128 317.495C448.479 314.228 430.259 304.118 426.569 289.818C429.844 285.048 435.06 278.369 441.408 271.638C444.132 276.685 448.29 283.185 452.953 287.634C449.584 290.132 445.741 292.251 442.137 292.701C446.75 296.161 457.013 304.81 461.165 311.729C465.316 318.648 460.204 318.456 457.128 317.495ZM463.817 299.114L464.048 300.774L464.398 300.675C464.211 300.139 464.017 299.617 463.817 299.114Z" fill="#DEB6A0"/>
<path d="M466.93 297.891L457.128 308.269C456.206 310.115 459.05 314.804 460.588 316.918C463.663 316.342 469.929 313.344 470.39 305.963C470.851 298.583 468.276 297.506 466.93 297.891Z" fill="#E7CAB9"/>
<path d="M465.777 301.35C466.931 299.236 470.736 295.815 476.733 299.044" stroke="#E7CAB9" stroke-width="3" stroke-linecap="round"/>
<path d="M466.931 304.234C467.892 302.696 470.736 300.082 474.426 301.927C478.117 303.772 479.424 303.849 479.616 303.657" stroke="#E7CAB9" stroke-width="3" stroke-linecap="round"/>
<path d="M467.507 305.964C468.276 305.195 470.275 303.772 472.12 304.234C474.426 304.81 477.688 305.964 479.228 305.964" stroke="#E7CAB9" stroke-width="3" stroke-linecap="round"/>
<path d="M466.931 309.423C468.084 308.462 471.313 307.117 475.003 309.423" stroke="#E7CAB9" stroke-width="2.5" stroke-linecap="round"/>
<path d="M477.8 241.668C473.882 242.113 471.448 246.553 474.216 254.856C473.832 252.741 475.695 246.804 478.462 250.033C481.23 253.262 485.766 264.064 487.688 269.061L494.031 250.033C494.415 247.919 496.817 249.781 497.74 254.856C498.316 253.126 502.195 246.301 496.337 240.808" stroke="#272F77" stroke-linecap="round"/>
<path d="M529.78 322.108C540.389 317.956 533.432 291.164 528.627 278.286L511.906 280.593C513.443 296.161 519.171 326.259 529.78 322.108Z" fill="#E7CAB9"/>
<path d="M527.647 322.748C512.808 321.708 501.409 293.38 497.565 279.345L503.228 277.304C507.338 282.085 517.053 293.644 523.032 301.633C529.011 309.623 528.6 319.039 527.647 322.748Z" fill="#E7CAB9"/>
<path d="M498.551 261.428C497.678 260.259 497.952 257.78 498.197 256.687C493.676 256.238 494.839 263.061 495.986 266.528C495.802 267.196 494.596 268.202 491.244 266.881C487.892 265.56 487.049 267.661 487.046 268.877C484.711 269.163 485.458 272.033 486.123 273.433C483.058 274.447 484.11 276.528 485.02 277.442C484.41 278.048 487.414 282.48 491.201 285.115C494.987 287.749 498.612 286.712 499.951 285.865L506.525 281.869C504.49 278.655 503.749 273.475 503.633 271.287C502.177 269.824 499.638 264.105 498.551 261.428Z" fill="#E7CAB9"/>
<path d="M196.176 245.774C196.505 239.858 200.421 235.367 202.338 233.861C204.803 227.288 222.056 230.985 226.985 232.218C231.915 233.45 233.147 247.006 231.504 249.06C236.023 250.703 239.72 263.438 236.844 267.956C233.969 272.475 220.413 273.707 212.197 274.529C203.981 275.35 193.301 268.778 191.658 263.438C190.343 259.165 195.218 255.906 197.819 254.811C197.135 254.263 195.848 251.689 196.176 245.774Z" fill="#272F77"/>
<path d="M253.276 352.99C260.835 313.554 253.413 284.251 248.757 274.529C244.745 262.616 189.604 251.935 180.155 276.994C170.707 302.052 171.118 316.429 173.583 349.703C176.048 382.977 243.828 402.285 253.276 352.99Z" fill="#E87613"/>
<path d="M215.483 258.919C197.737 257.933 190.894 265.081 185.691 268.778L189.193 299.587C185.633 305.064 181.47 322.427 183.442 348.06C183.113 366.464 205.351 372.16 215.483 372.708C223.699 372.708 242.431 367.778 245.06 348.06C247.689 328.342 242.322 307.529 240.131 299.587L244.455 268.778C239.525 265.902 233.23 259.905 215.483 258.919Z" fill="#FF9B21"/>
<path fill-rule="evenodd" clip-rule="evenodd" d="M199.216 261.161L216.305 286.62L226.899 261.258C223.315 260.619 219.487 260.141 215.483 259.919C209.67 259.596 204.169 260.146 199.216 261.161Z" fill="#FF9B21"/>
<path d="M205.624 261.794C205.624 255.55 207.268 248.786 208.089 246.184C208.773 243.72 218.359 243.309 220.002 246.184C221.645 249.06 222.878 258.508 222.878 261.794C222.878 264.423 217.127 265.081 214.251 265.081C211.375 264.944 205.624 264.095 205.624 261.794Z" fill="#DEB6A0"/>
<ellipse cx="214.251" cy="222.769" rx="15.61" ry="18.8963" fill="#272F77"/>
<path d="M227.396 230.164C227.396 237.424 223.699 251.114 214.251 251.114C205.624 251.114 201.106 237.424 201.106 230.164C201.106 222.904 206.991 217.018 214.251 217.018C221.511 217.018 227.396 222.904 227.396 230.164Z" fill="#E7CAB9"/>
<ellipse cx="200.167" cy="233.212" rx="2.093" ry="4.52727" transform="rotate(-7.68447 200.167 233.212)" fill="#E7CAB9"/>
<ellipse cx="227.611" cy="233.287" rx="2.093" ry="4.52727" transform="rotate(15 227.611 233.287)" fill="#E7CAB9"/>
<path d="M219.048 217.334C219.748 219.3 222.167 226.054 228.77 227.579C231.38 228.182 234.054 230.954 234.054 230.954" stroke="#272F77" stroke-width="1.5" stroke-linecap="round"/>
<path fill-rule="evenodd" clip-rule="evenodd" d="M227.397 227.222C222.225 224.763 220.149 219.696 219.473 218.037L220.208 215.95C224.52 218.262 227.397 222.419 227.397 227.163C227.397 227.183 227.397 227.202 227.397 227.222Z" fill="#272F77"/>
<path fill-rule="evenodd" clip-rule="evenodd" d="M201.188 228.965C201.133 228.332 201.106 227.728 201.106 227.164C201.106 222.504 203.53 218.411 207.187 216.076C208.264 217.469 207.232 217.505 206.992 216.956V219.792C206.972 219.862 206.95 219.938 206.926 220.02C206.385 221.893 204.982 226.752 201.188 228.965Z" fill="#272F77"/>
<path d="M208.203 217.663C207.611 219.648 205.796 226.395 200.635 228.18C198.953 228.761 196.402 231.014 195.633 233.211" stroke="#272F77" stroke-width="1.5" stroke-linecap="round"/>
<circle cx="210.322" cy="227.877" r="1" fill="#272F77"/>
<circle cx="219" cy="227.877" r="1" fill="#272F77"/>
<path d="M214.919 228.547C215.184 229.386 215.779 231.7 216.048 234.245" stroke="#272F77" stroke-width="1.5" stroke-linecap="round"/>
<path d="M210.965 239.612C212.197 240.296 215.483 241.255 218.77 239.612" stroke="#272F77" stroke-width="1.5" stroke-linecap="round"/>
<path d="M125.952 334.093L123.487 294.247L111.574 291.782V334.093H125.952Z" fill="#272F77"/>
<path d="M122.666 362.438C101.962 374.269 70.2216 367.367 56.9394 362.438C47.5084 339.503 53.3993 321.714 61.1904 304.516L63.2009 288.715C63.2391 284.45 63.3867 280.239 64.7444 276.583C67.6335 268.802 77.0681 264.002 77.0681 255.222C125.952 235.093 124.309 286.853 122.666 293.425C121.023 299.998 107.877 333.272 125.952 333.272C128.581 342.145 124.857 356.413 122.666 362.438Z" fill="#272F77"/>
<path fill-rule="evenodd" clip-rule="evenodd" d="M131.14 290.952C126.527 285.928 119.271 284.162 113.449 283.842C108.05 286.651 102.597 297.31 100.483 302.463C86.9271 296.575 60.7187 287.838 64.3336 299.998C67.9486 312.157 89.9395 321.222 100.483 324.234C113.957 326.206 123.35 308.898 126.363 299.998C128.53 297.716 130.068 294.478 131.14 290.952Z" fill="#DEB6A0"/>
<path fill-rule="evenodd" clip-rule="evenodd" d="M54.8855 273.297C47.0805 283.292 34.1817 305.174 45.0265 312.732C54.8853 319.604 72.1312 313.221 86.3356 307.965C91.3964 306.092 96.0711 304.362 99.888 303.425C100.073 303.074 100.276 302.749 100.483 302.463C101.64 299.643 103.797 295.174 106.398 291.245C98.4877 291.02 86.0231 292.51 79.9437 294.247H69.2631L70.9063 277.815L54.8855 273.297Z" fill="#E7CAB9"/>
<path fill-rule="evenodd" clip-rule="evenodd" d="M105.413 236.736C112.807 238.653 128.745 248.485 133.346 272.475C133.525 276.677 133.155 284.322 131.14 290.952C126.527 285.928 119.271 284.162 113.449 283.842C113.646 283.739 113.843 283.647 114.039 283.566V269.189C108.973 268.093 95.8001 266.56 83.6408 269.189C81.8607 269.326 77.2324 269.024 72.9602 266.724L70.0847 280.28C66.7691 278.911 58.4213 276.583 51.5552 278.226C61.6704 258.43 80.878 233.501 105.413 236.736Z" fill="#272F77"/>
<path fill-rule="evenodd" clip-rule="evenodd" d="M113.24 240.373C110.249 238.441 107.493 237.276 105.413 236.736C100.989 236.153 96.7388 236.485 92.6837 237.538C89.6879 241.634 88.4215 248.334 91.4458 258.919C99.82 254.778 111.781 247.074 113.24 240.373Z" fill="#DEB6A0"/>
<rect x="93.3661" y="211.387" width="17.7703" height="38.3839" rx="8.88515" fill="#DEB6A0"/>
<path d="M85.8412 212.257C84.4195 204.794 85.4857 200.055 86.1966 199.107L89.3952 194.487L96.1479 189.867L109.298 194.487L111.43 203.372L109.298 217.588L99.702 227.54L85.1303 222.919C85.7227 222.09 84.0641 219.721 85.8412 212.257Z" fill="#E7CAB9"/>
<circle cx="114.273" cy="213.679" r="4.97568" fill="#DEB6A0"/>
<path d="M85.8408 199.107C91.5272 202.235 95.259 199.463 97.2137 195.553C98.9908 191.999 106.455 191.288 103.967 197.33C100.605 205.493 108.587 203.727 107.876 211.546C107.308 217.801 101.242 220.668 99.7018 220.076C95.4369 218.773 85.889 216.998 84.7746 220.787C81.2204 232.871 90.8016 237.136 95.0813 237.136C106.81 237.136 113.278 229.956 114.984 208.348C117.117 181.337 98.2801 185.957 90.1057 186.313C81.9314 186.668 80.1545 195.98 85.8408 199.107Z" fill="#272F77"/>
<circle cx="97.5696" cy="208.348" r="1.06622" fill="#272F77"/>
<circle cx="89.0395" cy="208.348" r="1.06622" fill="#272F77"/>
<path d="M89.8447 223.435C90.6107 223.813 91.4873 224.006 92.4091 223.959C93.8706 223.883 95.1564 223.215 96.0306 222.209" stroke="#E7CAB9" stroke-width="1.5" stroke-linecap="round"/>
<path d="M89.7498 219.365C86.3379 217.091 90.3423 212.968 92.9486 210.835L93.6595 218.654C92.9487 219.247 91.1716 220.218 89.7498 219.365Z" fill="#E7CAB9"/>
<path d="M92.9486 210.835C90.3423 212.968 86.3379 217.091 89.7498 219.365C91.1716 220.218 92.9487 219.247 93.6595 218.654" stroke="#272F77" stroke-width="1.5" stroke-linecap="round"/>
<mask id="mask0" mask-type="alpha" maskUnits="userSpaceOnUse" x="51" y="236" width="83" height="55">
<path fill-rule="evenodd" clip-rule="evenodd" d="M105.413 236.736C112.807 238.653 128.745 248.485 133.346 272.475C133.525 276.677 133.155 284.322 131.14 290.952C126.527 285.928 119.271 284.162 113.449 283.842C113.646 283.739 113.843 283.647 114.039 283.566V269.189C108.973 268.093 95.8001 266.56 83.6408 269.189C81.8607 269.326 77.2324 269.024 72.9602 266.724L70.0847 280.28C66.7691 278.911 58.4213 276.583 51.5552 278.226C61.6704 258.43 80.878 233.501 105.413 236.736Z" fill="#272F77"/>
</mask>
<g mask="url(#mask0)">
<path d="M86.5163 235.915C82.6822 240.981 75.1785 255.55 75.8357 273.297" stroke="#272F77" stroke-width="3"/>
<path d="M126.774 236.325C120.886 242.35 108.37 258.426 105.413 274.529" stroke="#272F77" stroke-width="3"/>
</g>
<path fill-rule="evenodd" clip-rule="evenodd" d="M69.8978 279.681C71.1361 279.578 72.2237 280.498 72.3269 281.736C72.4584 283.314 72.9604 287.132 73.8623 289.838C74.358 291.325 74.5952 292.948 74.765 294.257C72.4268 294.279 69.3454 294.338 66.2079 294.435C65.7128 292.627 65.2011 290.89 64.8799 289.838L61.6867 283.452C61.0693 282.217 61.5698 280.715 62.8048 280.098C64.0397 279.48 65.5414 279.981 66.1589 281.216L68.2518 285.402C68.0362 284.028 67.9032 282.839 67.8424 282.11C67.7392 280.872 68.6594 279.784 69.8978 279.681ZM65.8418 294.446L64.0228 291.212L64.0001 291.172L63.9756 291.133L59.8677 284.56C59.2823 283.624 58.0484 283.339 57.1117 283.924C56.1751 284.51 55.8903 285.744 56.4757 286.68L60.1767 292.602L57.532 289.957C56.751 289.176 55.4846 289.176 54.7036 289.957C53.9225 290.738 53.9225 292.004 54.7036 292.785L56.7889 294.871C59.3361 294.69 62.6046 294.548 65.8418 294.446Z" fill="#DEB6A0"/>
<path d="M56.9395 295.068C62.0059 294.521 73.7818 293.59 80.3545 294.247" stroke="#272F77" stroke-width="1.5" stroke-linecap="round"/>
<path d="M100.483 303.695C87.6117 308.761 59.2399 317.99 48.7236 314.375" stroke="#272F77" stroke-width="1.5" stroke-linecap="round"/>
<path d="M102.537 253.989L108.288 260.151L116.504 248.238" stroke="#000507" stroke-width="1.5" stroke-linecap="round"/>
<path d="M86.1055 240.022C84.4623 242.624 81.176 248.649 81.176 251.935L87.7487 249.881" stroke="#000507" stroke-width="1.5" stroke-linecap="round"/>
<path d="M662.191 350.885C670.282 308.671 658.148 279.689 653.165 269.282C640.555 248.044 599.015 242.458 588.901 269.282C578.787 296.105 574.246 311.749 576.884 347.367C579.523 382.985 652.078 403.652 662.191 350.885Z" fill="#3D7F8C"/>
<path d="M593.869 346.377C592.306 332.633 598.011 304.299 600.423 290.311" stroke="#194A54" stroke-width="1.5" stroke-linecap="round"/>
<path d="M611.162 252.554C612.021 245.905 612.942 242.34 613.822 239.555C614.553 236.917 628.244 232.009 628.244 235.554C628.244 238.989 628.509 248.689 629.135 253.143C629.527 255.93 627.542 259.327 620.396 259.327C613.251 259.327 610.846 254.996 611.162 252.554Z" fill="#927854"/>
<path d="M635.311 215.101C635.311 225.14 627.63 235.357 619.061 235.357C610.491 235.357 603.545 227.22 603.545 217.181C603.545 207.143 610.491 199.005 619.061 199.005C627.63 199.005 635.311 205.063 635.311 215.101Z" fill="#A88D68"/>
<path d="M631.544 223.045C631.544 230.816 627.587 245.471 617.473 245.471C608.239 245.471 603.402 230.816 603.402 223.045C603.402 215.273 609.702 208.974 617.473 208.974C625.244 208.974 631.544 215.273 631.544 223.045Z" fill="#A88D68"/>
<ellipse cx="604.396" cy="225.307" rx="2.24044" ry="4.84619" transform="rotate(-7.68447 604.396 225.307)" fill="#A88D68"/>
<ellipse cx="632.152" cy="226.221" rx="2.88442" ry="4.84619" transform="rotate(15 632.152 226.221)" fill="#A88D68"/>
<circle r="1.07045" transform="matrix(-1 0 0 1 619.962 220.991)" fill="#272F77"/>
<circle r="1.07045" transform="matrix(-1 0 0 1 609.672 220.991)" fill="#272F77"/>
<path d="M615.517 222.257C615.234 223.155 613.624 226.97 614.746 228.549" stroke="#272F77" stroke-width="1.5" stroke-linecap="round"/>
<path d="M619.902 233.552C618.583 234.285 615.065 235.311 611.547 233.552" stroke="#272F77" stroke-width="1.5" stroke-linecap="round"/>
<path d="M628.983 218.995C628.979 221.413 627.809 226.263 623.159 226.325C618.509 226.387 617.17 221.766 617.082 219.448L617.041 218.373" stroke="#272F77" stroke-width="2" stroke-linecap="round"/>
<path d="M601.359 217.994C601.272 220.41 602.185 225.857 606.83 226.095C611.474 226.332 612.986 221.765 613.162 219.452L613.243 218.379" stroke="#272F77" stroke-width="2" stroke-linecap="round"/>
<path d="M629.491 218.686C628.098 217.78 623.746 216.379 617.479 218.024L613.888 218.161C612.392 217.339 607.608 216.083 600.444 217.634" stroke="#272F77" stroke-width="2" stroke-linecap="round"/>
<path d="M636.407 221.423L628.97 218.641" stroke="#272F77" stroke-width="2" stroke-linecap="round"/>
</g>
<defs>
<clipPath id="clip0">
<rect width="708" height="347" fill="white"/>
</clipPath>
</defs>
</svg>
