<svg width="675" height="361" viewBox="0 0 675 361" fill="none" xmlns="http://www.w3.org/2000/svg">
<mask id="mask0" mask-type="alpha" maskUnits="userSpaceOnUse" x="0" y="0" width="675" height="362">
<rect width="675" height="362" fill="#C4C4C4"/>
</mask>
<g mask="url(#mask0)">
<path opacity="0.5" d="M300.968 182.31L488.655 291.339C502.855 299.588 511.6 314.687 511.652 331.026C511.652 330.984 511.652 330.942 511.652 330.901L511.652 331.173C511.652 331.124 511.652 331.075 511.652 331.026C511.555 347.932 497.736 361.607 480.703 361.607L78.3646 361.607C61.2719 361.607 47.4155 347.836 47.4155 330.848L47.415 330.724C47.415 314.302 56.1981 299.117 70.4772 290.853L258.079 182.275C271.336 174.603 287.723 174.616 300.968 182.31Z" fill="#1E67FC"/>
<g opacity="0.1">
<path d="M12.0204 134.382C12.3884 133.468 13.2166 132.821 14.1931 132.684L29.1283 130.595C30.1048 130.458 31.0812 130.853 31.6897 131.631L40.997 143.525C41.6055 144.302 41.7537 145.345 41.3857 146.259L35.7578 160.242C35.3898 161.156 34.5616 161.804 33.5851 161.94L18.6499 164.03C17.6734 164.166 16.697 163.771 16.0885 162.994L6.78123 151.1C6.17271 150.322 6.02452 149.28 6.39248 148.366L12.0204 134.382Z" fill="#1E67FC"/>
<path d="M503.063 60.675C503.431 59.7608 504.26 59.1134 505.236 58.9768L520.171 56.8875C521.148 56.7509 522.124 57.1458 522.733 57.9234L532.04 69.8174C532.648 70.595 532.797 71.6373 532.429 72.5515L526.801 86.5348C526.433 87.449 525.605 88.0964 524.628 88.233L509.693 90.3223C508.716 90.4589 507.74 90.064 507.131 89.2864L497.824 77.3924C497.216 76.6148 497.067 75.5725 497.435 74.6583L503.063 60.675Z" fill="#1E67FC"/>
<path d="M378.158 50.264C379.242 49.6452 380.576 49.6452 381.66 50.264L398.23 59.7281C399.313 60.3469 399.98 61.4904 399.98 62.7279V81.6561C399.98 82.8936 399.313 84.0372 398.23 84.656L381.66 94.12C380.576 94.7388 379.242 94.7388 378.158 94.12L361.589 84.656C360.505 84.0372 359.838 82.8936 359.838 81.6561V62.7279C359.838 61.4904 360.505 60.3469 361.589 59.7281L378.158 50.264Z" fill="#1E67FC"/>
<path d="M260.276 70.3074C260.822 70.739 261.098 71.4295 260.999 72.1188L259.482 82.6614C259.383 83.3507 258.924 83.9341 258.278 84.1917L248.398 88.1328C247.752 88.3904 247.017 88.2833 246.47 87.8516L238.107 81.25C237.56 80.8184 237.284 80.1279 237.384 79.4386L238.9 68.896C239 68.2067 239.459 67.6233 240.105 67.3657L249.985 63.4247C250.631 63.167 251.366 63.2741 251.912 63.7058L260.276 70.3074Z" fill="#1E67FC"/>
<path d="M672.809 10.0194C673.356 10.451 673.632 11.1415 673.533 11.8308L672.016 22.3735C671.917 23.0627 671.458 23.6461 670.812 23.9038L660.932 27.8448C660.286 28.1025 659.551 27.9953 659.004 27.5637L650.641 20.9621C650.094 20.5305 649.818 19.8399 649.917 19.1507L651.434 8.60803C651.533 7.91874 651.992 7.33538 652.638 7.07772L662.518 3.13669C663.164 2.87902 663.899 2.98618 664.446 3.4178L672.809 10.0194Z" fill="#1E67FC"/>
<ellipse cx="74.1743" cy="196.282" rx="27.0727" ry="27.0571" fill="#1E67FC"/>
<ellipse cx="163.794" cy="121.641" rx="15.8702" ry="15.8611" fill="#1E67FC"/>
<ellipse cx="579.687" cy="106.247" rx="11.6693" ry="11.6626" fill="#1E67FC"/>
<ellipse cx="497.75" cy="133.818" rx="15.9195" ry="15.2739" fill="#1E67FC"/>
<path d="M199.476 179.943C202.09 180.782 204.057 182.95 204.637 185.631L208.58 203.846C209.016 205.857 208.345 207.947 206.82 209.329L206.413 209.697C204.888 211.079 202.742 211.543 200.782 210.914L181.972 204.878C180.012 204.249 178.536 202.623 178.101 200.612L173.923 181.315C173.488 179.304 174.159 177.214 175.684 175.832L176.091 175.463C177.615 174.081 179.762 173.617 181.722 174.246L199.476 179.943Z" fill="#1E67FC"/>
<path d="M311.668 104.735C313.044 103.359 315.051 102.822 316.931 103.325L329.705 106.745C331.115 107.123 332.216 108.224 332.594 109.633L332.695 110.009C333.073 111.418 332.67 112.921 331.637 113.953L321.729 123.854C320.697 124.886 319.192 125.288 317.782 124.911L304.249 121.288C302.838 120.91 301.737 119.809 301.359 118.4L301.258 118.024C300.88 116.615 301.284 115.112 302.316 114.08L311.668 104.735Z" fill="#1E67FC"/>
</g>
<path d="M499.211 288.65C501.508 269.82 494.424 252.483 490.595 246.168C483.893 245.403 470.49 246.168 470.49 255.353C470.49 264.539 478.149 278.316 481.978 284.057C483.357 291.865 479.106 314.483 476.809 324.817L485.999 334.576C489.446 327.113 496.913 307.48 499.211 288.65Z" fill="#957648"/>
<path d="M359.629 284.407C360.089 268.792 374.756 248.814 382.031 240.777C390.456 241.542 405.582 246.977 398.689 262.592C391.796 278.207 382.414 283.641 378.585 284.407C379.504 291.296 394.285 314.45 401.561 325.166L391.222 332.055C368.705 317.818 360.778 294.358 359.629 284.407Z" fill="#957648"/>
<path d="M471.524 200.931C471.05 197.466 461.448 196.542 456.706 196.512C445.026 195.576 419.138 195.425 418.564 202.314C417.989 209.203 421.665 210.159 425.112 209.777C428.542 206.306 439.657 199.66 456.679 200.839C466.576 200.901 470.681 203.811 471.497 205.258L471.524 200.931Z" fill="#26282D"/>
<path d="M418.793 201.166C420.9 199.061 429.107 195.999 445.216 195.999C456.705 195.999 467.618 196.573 471.065 200.018" stroke="#272F77" stroke-width="1.5" stroke-linecap="round"/>
<path d="M406.157 210.351C385.938 212.647 381.266 231.592 381.457 240.777L378.011 244.795L375.139 249.388L396.966 263.74C397.885 277.518 400.413 311.58 403.859 323.444L472.788 312.537V253.981L491.169 246.518C493.927 222.177 477.384 213.412 468.767 212.073C445.791 201.969 417.454 206.141 406.157 210.351Z" fill="#F0F4FA"/>
<ellipse rx="6.83864" ry="6.83472" transform="matrix(-1 0 0 1 423.335 171.758)" fill="#957648"/>
<path d="M470.717 160.529L463.389 159.065V157.112L460.459 149.301H464.366H469.251L474.136 151.254L477.555 154.183L478.532 157.112L477.555 159.065L474.136 160.529H470.717Z" fill="#272F77"/>
<rect width="24.4237" height="52.7249" rx="12.2119" transform="matrix(-1 0 0 1 451.667 164.923)" fill="#876739"/>
<path d="M443.703 200.507C433.568 198.32 424.672 179.252 421.707 166.563C421.056 163.778 421.703 160.896 423.189 158.453L429.527 148.038C431.972 144.02 436.472 141.671 441.126 142.349C449.643 143.59 460.018 146.026 462.631 149.974C465.314 154.027 465.117 160.007 464.368 164.201C463.987 166.334 463.894 168.533 463.874 170.699C463.795 179.204 459.293 194.111 456.322 198.15C453.895 201.45 448.071 201.45 443.703 200.507Z" fill="#957648"/>
<ellipse rx="1.46544" ry="1.46458" transform="matrix(-1 0 0 1 446.293 166.388)" fill="#272F77"/>
<path d="M420.977 150.277C418.241 158.869 423.419 172.734 426.35 178.592V179.569L429.769 178.592C423.908 160.236 435.143 153.044 441.493 151.742C435.794 147.673 423.712 141.685 420.977 150.277Z" fill="#272F77"/>
<ellipse rx="1.46542" ry="1.46458" transform="matrix(-1 0 0 1 458.017 166.388)" fill="#272F77"/>
<path d="M453.132 168.828C455.868 172.559 460.151 177.628 457.279 180.057C455.399 181.647 451.178 180.057 451.178 180.057" stroke="#272F77" stroke-width="1.5" stroke-linecap="round"/>
<path d="M451.178 153.206C441.409 157.893 431.802 157.112 428.22 156.136C441.506 149.106 458.505 148.682 465.344 149.349C461.354 149.446 456.603 150.604 451.178 153.206Z" fill="#272F77"/>
<path d="M422.144 161.821C435.278 150.294 455.69 148.304 464.367 149.253C461.487 141.576 452.885 129.627 436.534 135.042C420.217 140.446 419.329 154.399 420.534 161.316C420.665 162.067 421.571 162.324 422.144 161.821Z" fill="#272F77"/>
<path d="M428.22 156.136C431.802 157.112 441.409 157.893 451.178 153.206C456.604 150.604 461.354 149.446 465.344 149.349C470.335 149.227 474.136 150.765 476.579 153.206C480.975 157.6 477.556 161.994 467.298 160.041L464.451 159.553" stroke="#1E67FC" stroke-width="1.5" stroke-linecap="round"/>
<path d="M454.749 186.165C452.614 187.051 450.101 187.094 447.773 186.082C446.847 185.68 446.023 185.142 445.316 184.504" stroke="#272F77" stroke-width="1.5" stroke-linecap="round"/>
<path d="M397.541 329.185C400.413 329.95 406.616 328.152 408.454 314.833C410.752 298.185 414.773 263.74 421.091 247.666L472.214 245.944C473.411 260.643 476.594 290.854 480.535 305.648C480.779 306.564 479.947 311.116 479.157 315.47L477.958 324.018L479.598 327.926C481.841 331.142 485.427 333.247 486.392 344.111C487.312 354.469 487.915 365.715 487.723 376.26C487.148 407.834 396.392 404.389 394.094 383.723C391.796 363.056 392.945 338.944 397.541 329.185Z" fill="#272F77"/>
<mask id="mask1" mask-type="alpha" maskUnits="userSpaceOnUse" x="375" y="205" width="117" height="119">
<path d="M406.157 210.351C385.938 212.647 381.266 231.592 381.457 240.777L378.011 244.795L375.139 249.388L396.966 263.74C397.885 277.518 400.413 311.58 403.859 323.444L472.788 312.537V253.981L491.169 246.518C493.927 222.177 477.384 213.412 468.767 212.073C445.791 201.969 417.454 206.141 406.157 210.351Z" fill="#D0D8E5"/>
</mask>
<g mask="url(#mask1)">
<path d="M402.136 194.851C410.943 198.678 428.903 217.584 430.282 262.592" stroke="#272F77" stroke-width="7"/>
<path d="M451.535 194.276C459.577 199.06 474.167 218.617 468.193 258.573" stroke="#272F77" stroke-width="7"/>
</g>
<rect x="0.904207" y="0.554708" width="9.98781" height="4.24098" rx="1.25" transform="matrix(0.972514 -0.232843 0.233095 0.972454 420.476 232.66)" stroke="#1E67FC" stroke-width="1.5"/>
<rect x="464.348" y="229.582" width="9.98819" height="4.24078" rx="1.25" stroke="#1E67FC" stroke-width="1.5"/>
<path d="M402.71 349.278C393.52 345.604 390.456 335.117 390.073 330.333C390.648 327.08 393.52 321.263 400.413 324.018C407.306 326.774 416.305 333.204 419.943 336.074C418.028 342.006 411.901 352.952 402.71 349.278Z" fill="#957648"/>
<path d="M417.07 337.222C419.751 338.179 426.606 341.126 432.579 345.259" stroke="#957648" stroke-width="4" stroke-linecap="round"/>
<path d="M411.901 340.667C413.816 341.432 418.679 344.111 422.815 348.704L430.282 353.87" stroke="#957648" stroke-width="4.5" stroke-linecap="round"/>
<path d="M411.327 345.259C412.475 345.833 416.152 348.015 419.368 352.148C421.092 353.87 424.538 356.741 426.836 358.463" stroke="#957648" stroke-width="4" stroke-linecap="round"/>
<path d="M405.008 348.13C406.348 349.469 409.603 353.182 411.901 357.315L414.773 360.759" stroke="#957648" stroke-width="3.5" stroke-linecap="round"/>
<ellipse rx="5.74306" ry="10.0117" transform="matrix(0.829242 -0.55889 0.559334 0.828943 482.001 332.083)" fill="#957648"/>
<path d="M481.13 329.483C480.501 331.708 477.548 337.23 470.766 341.517" stroke="#957648" stroke-width="4.5" stroke-linecap="round"/>
<path d="M483.564 334.352C482.935 336.577 479.982 342.099 473.2 346.386" stroke="#957648" stroke-width="4.5" stroke-linecap="round"/>
<path d="M486.574 338.944V344.129C486.574 344.826 486.337 345.505 485.861 346.014C484.441 347.531 481.981 349.729 479.681 350.426" stroke="#957648" stroke-width="3.5" stroke-linecap="round"/>
<path d="M479.681 327.463L476.025 326.092C475.434 325.871 474.773 325.941 474.242 326.283L467.044 330.907" stroke="#957648" stroke-width="4" stroke-linecap="round"/>
<rect width="20.4838" height="28.0333" rx="10" transform="matrix(0.696132 -0.717914 0.718315 0.695718 417.992 208.982)" fill="#26282D"/>
<rect width="16.7903" height="25.196" rx="8.39517" transform="matrix(0.696132 -0.717914 0.718315 0.695718 417.992 208.982)" fill="#FFD760"/>
<path d="M448.701 206.226C451.846 197.957 457.434 198.306 459.836 199.514C461.621 200.784 465.304 204.431 465.751 208.859C466.308 214.395 457.573 220.244 452.096 221.417C446.62 222.59 444.769 216.563 448.701 206.226Z" fill="#26282D"/>
<path fill-rule="evenodd" clip-rule="evenodd" d="M461.853 201.293C463.566 203.081 465.44 205.781 465.751 208.859C466.284 214.154 458.316 219.736 452.829 221.238C448.723 217.458 451.493 209.499 454.177 205.054C456.127 201.826 459.442 201.157 461.853 201.293Z" fill="#FFD760"/>
<path d="M420.751 204.572L433.808 211.097C434.303 211.343 434.503 211.944 434.256 212.438L433.011 214.926C432.762 215.425 432.151 215.623 431.656 215.366L419.141 208.862C418.068 208.326 418.605 207.329 418.605 205.184L418.605 201.89C418.605 203.177 420.036 204.214 420.751 204.572Z" fill="#61646B"/>
<path d="M457.833 214.446L457.241 210.115C459.723 208.894 466.544 206.093 469.027 204.625C471.51 203.156 471.314 201.548 471.524 200.931L471.478 208.349C467.007 211.289 460.518 213.639 457.833 214.446Z" fill="#61646B"/>
<path d="M251.814 219.536C252.274 211.269 257.75 204.993 260.43 202.888C263.877 193.702 288.002 198.869 294.895 200.591C301.788 202.314 303.511 221.258 301.214 224.129C307.532 226.425 312.702 244.221 308.681 250.536C304.66 256.851 285.704 258.573 274.216 259.721C262.728 260.87 247.793 251.684 245.496 244.221C243.658 238.251 250.474 233.697 254.112 232.166C253.155 231.4 251.355 227.803 251.814 219.536Z" fill="#272F77"/>
<path d="M331.657 369.37C342.227 314.259 331.849 273.308 325.339 259.721C319.729 243.073 242.624 228.147 229.413 263.166C216.201 298.185 216.776 318.277 220.222 364.778C223.668 411.278 318.446 438.26 331.657 369.37Z" fill="#A1A6B3"/>
<path d="M278.812 237.906C253.997 236.529 233.242 246.518 225.966 251.684L242.05 294.74C237.072 302.395 231.251 326.659 234.008 362.482C233.549 388.2 264.643 396.161 278.812 396.926C290.3 396.926 316.493 390.037 320.169 362.482C323.846 334.926 316.34 305.839 313.277 294.74L330.509 251.684C323.616 247.666 303.626 239.284 278.812 237.906Z" fill="#FFD760"/>
<mask id="mask2" mask-type="alpha" maskUnits="userSpaceOnUse" x="225" y="237" width="106" height="160">
<path d="M278.812 237.906C253.997 236.529 233.242 246.518 225.966 251.684L242.05 294.74C237.072 302.395 231.251 326.659 234.008 362.482C233.549 388.2 264.643 396.161 278.812 396.926C290.3 396.926 316.493 390.037 320.169 362.482C323.846 334.926 316.34 305.839 313.277 294.74L330.509 251.684C323.616 247.666 303.626 239.284 278.812 237.906Z" fill="#FFD760"/>
</mask>
<g mask="url(#mask2)">
<path d="M244.922 236.758C248.56 253.215 256.18 289.918 257.559 305.074" stroke="#F0F4FA" stroke-width="11"/>
<path d="M309.256 234.462C304.661 248.814 298.917 285.67 298.917 304.5" stroke="#F0F4FA" stroke-width="11"/>
<path d="M228.838 305.074H320.744" stroke="#F0F4FA" stroke-width="11"/>
<path d="M227.115 346.981H327.062" stroke="#F0F4FA" stroke-width="11"/>
</g>
<path d="M280.535 280.388C281.875 297.611 283.752 338.83 280.535 365.926" stroke="#272F77" stroke-width="1.5" stroke-linecap="round"/>
<path fill-rule="evenodd" clip-rule="evenodd" d="M256.065 239.642L279.961 275.222L294.775 239.778C289.763 238.885 284.41 238.217 278.812 237.906C270.684 237.455 262.991 238.223 256.065 239.642Z" fill="#C4C4C4"/>
<path d="M265.026 241.925C265.026 233.199 267.324 223.746 268.473 220.11C269.429 216.666 282.833 216.091 285.131 220.11C287.428 224.129 289.152 237.332 289.152 241.925C289.152 245.599 281.11 246.518 277.089 246.518C273.068 246.326 265.026 245.14 265.026 241.925Z" fill="#DEB6A0"/>
<path d="M251.24 189.11C253.538 193.702 269.813 193.32 277.663 192.554C286.279 192.937 303.397 192.325 302.937 186.814C302.478 181.302 286.662 179.925 278.812 179.925C268.664 181.073 248.943 184.517 251.24 189.11Z" fill="#A1A6B3"/>
<ellipse cx="277.089" cy="187.388" rx="21.8276" ry="26.4076" fill="#272F77"/>
<path d="M295.47 197.721C295.47 207.867 290.3 226.999 277.089 226.999C265.026 226.999 258.708 207.867 258.708 197.721C258.708 187.575 266.937 179.35 277.089 179.35C287.24 179.35 295.47 187.575 295.47 197.721Z" fill="#E7CAB9"/>
<ellipse rx="2.92661" ry="6.32694" transform="matrix(0.99103 -0.133643 0.133792 0.991009 257.394 201.98)" fill="#E7CAB9"/>
<ellipse rx="2.92655" ry="6.32711" transform="matrix(0.965963 0.25868 -0.258959 0.965888 295.771 202.086)" fill="#E7CAB9"/>
<path d="M285.678 185.885C286.658 188.632 290.04 198.072 299.274 200.202C302.923 201.045 306.662 204.919 306.662 204.919" stroke="#272F77" stroke-width="1.5" stroke-linecap="round"/>
<path fill-rule="evenodd" clip-rule="evenodd" d="M295.452 198.771C289.066 195.353 286.509 188.214 285.678 185.885L286.832 182.141C292.02 185.388 295.47 191.152 295.47 197.721C295.47 198.061 295.464 198.412 295.452 198.771Z" fill="#272F77"/>
<path fill-rule="evenodd" clip-rule="evenodd" d="M258.822 200.238C258.746 199.353 258.708 198.51 258.708 197.721C258.708 191.209 262.098 185.489 267.21 182.226C268.717 184.173 267.274 184.223 266.939 183.456V187.42C266.91 187.517 266.88 187.623 266.847 187.738C266.09 190.355 264.128 197.146 258.822 200.238Z" fill="#272F77"/>
<path d="M266.657 186.207C265.829 188.981 263.292 198.41 256.074 200.904C253.723 201.716 250.156 204.866 249.081 207.936" stroke="#272F77" stroke-width="1.5" stroke-linecap="round"/>
<ellipse cx="271.594" cy="194.526" rx="1.3983" ry="1.39751" fill="#272F77"/>
<ellipse cx="283.729" cy="194.526" rx="1.3983" ry="1.39751" fill="#272F77"/>
<path d="M278.023 195.461C278.393 196.634 279.226 199.868 279.601 203.425" stroke="#272F77" stroke-width="1.5" stroke-linecap="round"/>
<path d="M272.494 210.925C274.217 211.882 278.812 213.221 283.407 210.925" stroke="#272F77" stroke-width="1.5" stroke-linecap="round"/>
<path fill-rule="evenodd" clip-rule="evenodd" d="M270.082 157.592C270.725 156.438 272.084 155.239 274.629 155.239C277.341 155.239 278.601 155.819 279.264 156.553C281.748 157.894 285.948 159.963 288.024 160.259C290.954 160.678 300.163 169.044 301 180.758C301.837 181.037 303.512 182.682 303.512 187.033C301.502 185.36 284.815 185.22 276.722 185.36C269.467 185.639 254.119 186.782 250.77 189.125C250.491 187.312 250.603 183.603 253.282 183.268C253.282 183.112 253.281 182.946 253.281 182.77C253.266 178.25 253.233 167.602 261.695 162.769C266.516 160.016 268.97 158.416 270.082 157.592Z" fill="#272F77"/>
<path d="M270.196 158.684C269.813 159.066 268.932 160.98 268.473 165.573" stroke="white" stroke-width="1.5" stroke-linecap="round"/>
<path d="M253.538 183.369C254.112 183.178 257.214 182.451 265.026 181.073" stroke="white" stroke-width="1.5" stroke-linecap="round"/>
<path d="M175.992 342.963L172.546 287.277L155.888 283.833V342.963H175.992Z" fill="#272F77"/>
<path d="M171.397 382.574C142.447 399.108 98.0638 389.463 79.4912 382.574C66.3038 350.524 74.541 325.662 85.4353 301.629L88.2467 279.546C88.3001 273.586 88.5065 267.702 90.405 262.592C94.4448 251.718 107.637 245.011 107.637 232.74C175.992 204.61 173.694 276.944 171.397 286.129C169.099 295.314 150.718 341.815 175.992 341.815C179.668 354.215 174.46 374.155 171.397 382.574Z" fill="#F0F4FA"/>
<path fill-rule="evenodd" clip-rule="evenodd" d="M183.246 282.673C176.796 275.651 166.65 273.183 158.509 272.736C150.96 276.662 143.334 291.558 140.379 298.759C121.423 290.53 84.7758 278.322 89.8306 295.314C94.8854 312.307 125.635 324.975 140.379 329.185C159.219 331.941 172.354 307.753 176.566 295.314C179.597 292.126 181.747 287.6 183.246 282.673Z" fill="#DEB6A0"/>
<path fill-rule="evenodd" clip-rule="evenodd" d="M76.6193 257.999C65.7055 271.969 47.6691 302.548 62.8335 313.111C76.6191 322.713 100.734 313.794 120.596 306.448C127.673 303.831 134.209 301.413 139.547 300.104C139.805 299.613 140.089 299.159 140.379 298.759C141.996 294.818 145.013 288.573 148.65 283.082C137.589 282.768 120.159 284.85 111.658 287.277H96.7236L99.0213 264.314L76.6193 257.999Z" fill="#E7CAB9"/>
<path fill-rule="evenodd" clip-rule="evenodd" d="M147.272 206.906C157.611 209.585 179.898 223.325 186.331 256.851C186.581 262.723 186.064 273.407 183.246 282.673C176.796 275.652 166.65 273.183 158.509 272.736C158.784 272.593 159.059 272.464 159.334 272.351V252.259C152.25 250.728 133.83 248.584 116.828 252.259C114.339 252.45 107.867 252.029 101.893 248.814L97.8723 267.759C93.2361 265.845 81.5633 262.592 71.9624 264.888C86.1065 237.224 112.965 202.385 147.272 206.906Z" fill="#272F77"/>
<path fill-rule="evenodd" clip-rule="evenodd" d="M158.216 211.988C154.035 209.289 150.181 207.66 147.272 206.906C141.086 206.091 135.143 206.555 129.473 208.026C125.284 213.751 123.513 223.114 127.742 237.907C139.452 232.119 156.177 221.354 158.216 211.988Z" fill="#DEB6A0"/>
<rect x="130.427" y="171.481" width="24.8483" height="53.6414" rx="12.4242" fill="#DEB6A0"/>
<path d="M119.905 172.697C117.917 162.267 119.408 155.644 120.402 154.32L124.875 147.863L134.317 141.406L152.705 147.863L155.686 160.28L152.705 180.147L139.287 194.054L118.911 187.597C119.739 186.438 117.42 183.127 119.905 172.697Z" fill="#E7CAB9"/>
<ellipse cx="159.661" cy="174.684" rx="6.95753" ry="6.95354" fill="#DEB6A0"/>
<path d="M119.904 154.32C127.856 158.691 133.074 154.816 135.807 149.353C138.292 144.386 148.729 143.393 145.25 151.836C140.55 163.244 151.711 160.777 150.717 171.703C149.921 180.445 141.44 184.452 139.286 183.624C133.323 181.803 119.972 179.322 118.414 184.617C113.444 201.504 126.841 207.464 132.825 207.464C149.225 207.464 158.27 197.432 160.656 167.233C163.638 129.486 137.298 135.943 125.868 136.439C114.438 136.936 111.953 149.949 119.904 154.32Z" fill="#272F77"/>
<ellipse cx="136.305" cy="167.233" rx="1.4909" ry="1.49002" fill="#272F77"/>
<ellipse cx="124.377" cy="167.233" rx="1.49091" ry="1.49002" fill="#272F77"/>
<path d="M125.503 188.317C126.574 188.846 127.8 189.116 129.089 189.049C131.132 188.944 132.93 188.011 134.153 186.604" stroke="#E7CAB9" stroke-width="1.5" stroke-linecap="round"/>
<path d="M125.37 182.63C120.599 179.452 126.199 173.69 129.843 170.71L130.837 181.637C129.843 182.465 127.358 183.822 125.37 182.63Z" fill="#E7CAB9"/>
<path d="M129.843 170.71C126.199 173.69 120.599 179.452 125.37 182.63C127.358 183.822 129.843 182.465 130.837 181.637" stroke="#272F77" stroke-width="1.5" stroke-linecap="round"/>
<mask id="mask3" mask-type="alpha" maskUnits="userSpaceOnUse" x="71" y="206" width="116" height="77">
<path fill-rule="evenodd" clip-rule="evenodd" d="M147.272 206.906C157.611 209.585 179.898 223.325 186.331 256.851C186.581 262.723 186.064 273.407 183.246 282.673C176.796 275.652 166.65 273.183 158.509 272.736C158.784 272.593 159.059 272.464 159.334 272.351V252.259C152.25 250.728 133.83 248.584 116.828 252.259C114.339 252.45 107.867 252.029 101.893 248.814L97.8723 267.759C93.2361 265.845 81.5633 262.592 71.9624 264.888C86.1065 237.224 112.965 202.385 147.272 206.906Z" fill="#272F77"/>
</mask>
<g mask="url(#mask3)">
<path d="M120.849 205.758C115.488 212.838 104.995 233.199 105.914 257.999" stroke="#F0F4FA" stroke-width="3"/>
<path d="M177.141 206.332C168.908 214.752 151.407 237.218 147.271 259.722" stroke="#F0F4FA" stroke-width="3"/>
</g>
<path fill-rule="evenodd" clip-rule="evenodd" d="M97.6852 267.813C98.9236 267.709 100.011 268.63 100.114 269.868C100.3 272.099 101.01 277.517 102.304 281.399C102.957 283.355 103.278 285.499 103.514 287.301C102.136 287.317 100.605 287.342 98.9831 287.374C98.7652 285.784 98.5005 284.217 98.0354 282.822C96.5729 278.437 95.8269 272.603 95.63 270.242C95.5267 269.004 96.4469 267.916 97.6852 267.813ZM98.619 287.382C97.7448 284.095 96.7607 280.768 96.2407 279.079L96.1798 278.881L96.0872 278.696L91.4919 269.51C90.8741 268.276 89.3723 267.775 88.1375 268.393C86.9027 269.011 86.4025 270.513 87.0203 271.748L91.5225 280.747C91.9841 282.255 92.7467 284.839 93.4752 287.509C95.2356 287.459 96.9712 287.416 98.619 287.382ZM91.0421 287.585L88.7013 283.426L88.6787 283.386L88.6542 283.346L82.9101 274.161C82.3244 273.225 81.0904 272.94 80.1539 273.526C79.2174 274.112 78.9329 275.346 79.5186 276.282L85.2382 285.428L86.5473 287.754C88.0164 287.692 89.5278 287.635 91.0421 287.585ZM85.7061 287.791L79.7561 281.844C78.9748 281.063 77.7085 281.064 76.9277 281.845C76.1468 282.626 76.1472 283.893 76.9285 284.673L80.335 288.078C81.9801 287.972 83.8001 287.876 85.7061 287.791Z" fill="#DEB6A0"/>
<path d="M79.4912 288.426C86.5756 287.66 103.042 286.359 112.233 287.277" stroke="#272F77" stroke-width="1.5" stroke-linecap="round"/>
<path d="M140.379 300.481C122.38 307.561 82.7078 320.459 68.0029 315.407" stroke="#272F77" stroke-width="1.5" stroke-linecap="round"/>
<path d="M143.251 231.018L151.293 239.629L162.781 222.98" stroke="#000507" stroke-width="1.5" stroke-linecap="round"/>
<path d="M120.274 211.499C117.977 215.135 113.381 223.555 113.381 228.147L122.572 225.277" stroke="#000507" stroke-width="1.5" stroke-linecap="round"/>
</g>
</svg>
