<svg width="78" height="87" viewBox="0 0 78 87" fill="none" xmlns="http://www.w3.org/2000/svg">
<rect width="78" height="87" fill="white"/>
<path d="M35.9054 1.1374C37.9894 -0.0578438 40.557 -0.0578446 42.641 1.1374L74.5157 19.4186C76.5998 20.6138 77.8836 22.8227 77.8836 25.2132V61.7755C77.8836 64.166 76.5998 66.3749 74.5157 67.5701L42.641 85.8513C40.557 87.0465 37.9894 87.0465 35.9054 85.8513L4.03065 67.5701C1.94665 66.3749 0.662842 64.166 0.662842 61.7755V25.2132C0.662842 22.8227 1.94664 20.6138 4.03065 19.4186L35.9054 1.1374Z" fill="#F0F4FA"/>
<circle cx="49.069" cy="43.25" r="17.9142" stroke="#1E67FC" stroke-width="1.46622" stroke-dasharray="1.95 3.91"/>
<g style="mix-blend-mode:multiply">
<circle cx="21.0981" cy="43.25" r="13.9854" fill="#FFB2AC"/>
</g>
<circle cx="44.7455" cy="40.8063" r="0.977477" fill="#1E67FC"/>
<circle cx="52.5654" cy="40.8063" r="0.977477" fill="#1E67FC"/>
<path d="M44.4049 45.205C44.8936 45.8566 46.4576 47.1599 48.8036 47.1599C51.1495 47.1599 52.3876 45.8566 52.9578 45.205" stroke="#1E67FC" stroke-width="0.977477"/>
</svg>
