<svg width="44" height="44" viewBox="0 0 44 44" fill="none" xmlns="http://www.w3.org/2000/svg">
<path fill-rule="evenodd" clip-rule="evenodd" d="M43.9786 21.8084C43.9786 33.8528 34.2146 43.6168 22.1702 43.6168C10.1258 43.6168 0.361816 33.8528 0.361816 21.8084C0.361816 9.76394 10.1258 0 22.1702 0C34.2146 0 43.9786 9.76394 43.9786 21.8084ZM12.8863 18.637C13.1915 18.8524 14.1116 19.4921 15.6465 20.5558C17.1815 21.6194 18.3574 22.4384 19.1742 23.0128C19.264 23.0757 19.4546 23.2126 19.7463 23.4235C20.0381 23.6346 20.2805 23.8052 20.4733 23.9353C20.6664 24.0654 20.8997 24.2113 21.1736 24.3728C21.4474 24.5342 21.7055 24.6556 21.9479 24.736C22.1903 24.817 22.4147 24.8571 22.6211 24.8571H22.6347H22.6482C22.8547 24.8571 23.0791 24.8169 23.3215 24.736C23.5638 24.6556 23.8221 24.5341 24.0957 24.3728C24.3694 24.2111 24.6028 24.0653 24.7958 23.9353C24.9888 23.8052 25.2311 23.6346 25.5229 23.4235C25.8145 23.2124 26.0054 23.0757 26.0952 23.0128C26.9209 22.4384 29.0215 20.9797 32.3965 18.6368C33.0517 18.1792 33.5992 17.627 34.0389 16.9807C34.479 16.3346 34.6989 15.6569 34.6989 14.9478C34.6989 14.3553 34.4856 13.8481 34.0591 13.4263C33.6328 13.0043 33.1278 12.7935 32.5445 12.7935H12.7247C12.0335 12.7935 11.5017 13.0268 11.1292 13.4935C10.7567 13.9603 10.5704 14.5438 10.5704 15.2439C10.5704 15.8094 10.8174 16.4222 11.311 17.0819C11.8046 17.7417 12.3299 18.2601 12.8863 18.637ZM26.647 24.723C28.1728 23.6187 30.4082 22.0702 33.3521 20.0776C33.864 19.7276 34.3127 19.3369 34.6988 18.9063V29.5968C34.6988 30.1896 34.488 30.6964 34.066 31.1184C33.6441 31.5404 33.1369 31.7514 32.5445 31.7514H12.7247C12.1322 31.7514 11.625 31.5404 11.2031 31.1184C10.7812 30.6965 10.5703 30.1896 10.5703 29.5968V18.9063C10.9653 19.346 11.4186 19.7367 11.9304 20.0776C15.1798 22.2857 17.4103 23.8344 18.6222 24.723C19.1338 25.0998 19.549 25.394 19.8676 25.6048C20.1862 25.8158 20.6104 26.0312 21.14 26.251C21.6695 26.4711 22.1632 26.5809 22.621 26.5809H22.6346H22.6483C23.1062 26.5809 23.5996 26.4711 24.1292 26.251C24.6589 26.0312 25.0828 25.8158 25.4015 25.6048C25.7203 25.394 26.1354 25.0998 26.647 24.723Z" fill="white"/>
</svg>
