<svg width="44" height="43" viewBox="0 0 44 43" fill="none" xmlns="http://www.w3.org/2000/svg">
<path d="M22.1082 0.908691C10.0591 0.908691 0.299805 10.5044 0.299805 22.3391C0.299805 31.8093 6.5479 39.8403 15.2113 42.6717C16.3017 42.8735 16.7015 42.2101 16.7015 41.6413C16.7015 41.1324 16.6833 39.7839 16.6743 37.9975C10.6079 39.2896 9.32847 35.1224 9.32847 35.1224C8.33619 32.649 6.90229 31.9874 6.90229 31.9874C4.92681 30.659 7.05495 30.6862 7.05495 30.6862C9.24487 30.8352 10.3953 32.8943 10.3953 32.8943C12.3398 36.171 15.5002 35.2242 16.747 34.6771C16.9432 33.2905 17.5048 32.3473 18.1282 31.8112C13.2849 31.275 8.19444 29.4322 8.19444 21.2214C8.19444 18.8824 9.03951 16.9706 10.4389 15.4712C10.1935 14.9297 9.45751 12.7506 10.6297 9.79924C10.6297 9.79924 12.4562 9.22495 16.627 11.9964C18.3717 11.5203 20.2254 11.284 22.0791 11.2731C23.9328 11.284 25.7865 11.5203 27.5312 11.9964C31.6748 9.22495 33.5012 9.79924 33.5012 9.79924C34.6734 12.7506 33.9374 14.9297 33.7193 15.4712C35.1096 16.9706 35.9547 18.8824 35.9547 21.2214C35.9547 29.454 30.857 31.266 26.0046 31.793C26.7679 32.4363 27.4767 33.7503 27.4767 35.7585C27.4767 38.6263 27.4494 40.9307 27.4494 41.6268C27.4494 42.1883 27.8311 42.8589 28.9487 42.6445C37.6739 39.8312 43.9166 31.7948 43.9166 22.3391C43.9166 10.5044 34.1519 0.908691 22.1082 0.908691V0.908691Z" fill="white"/>
</svg>
