<svg width="44" height="44" viewBox="0 0 44 44" fill="none" xmlns="http://www.w3.org/2000/svg">
<path fill-rule="evenodd" clip-rule="evenodd" d="M34.048 32.0852V23.5712C34.048 19.0096 31.6127 16.887 28.3662 16.887C25.7462 16.887 24.5722 18.3285 23.918 19.3397V17.2359H18.982C19.0474 18.6294 18.982 32.0852 18.982 32.0852H23.918V23.7922C23.918 23.3495 23.95 22.9061 24.0808 22.5891C24.437 21.7022 25.249 20.7841 26.612 20.7841C28.3989 20.7841 29.1127 22.1457 29.1127 24.1411V32.0859H34.048V32.0852ZM13.7822 15.2092C15.5028 15.2092 16.5751 14.0679 16.5751 12.6423C16.5431 11.1862 15.5028 10.0777 13.8149 10.0777C12.1269 10.0777 11.0227 11.1855 11.0227 12.6423C11.0227 14.0679 12.0942 15.2092 13.7509 15.2092H13.7822ZM21.8084 43.6168C9.76434 43.6168 0 33.8524 0 21.8084C0 9.76361 9.76434 0 21.8084 0C33.8524 0 43.6168 9.76361 43.6168 21.8084C43.6168 33.8524 33.8524 43.6168 21.8084 43.6168ZM16.2501 32.0852V17.2359H11.3149V32.0852H16.2501Z" fill="white"/>
</svg>
