<svg width="44" height="44" xmlns="http://www.w3.org/2000/svg">

 <g>
  <title>background</title>
  <rect fill="none" id="canvas_background" height="46" width="46" y="-1" x="-1"/>
 </g>
 <g>
  <title>Layer 1</title>
  <path stroke="null" id="svg_1" fill-rule="evenodd" clip-rule="evenodd" fill="#ffffff" d="m25.022307,13.454192c-1.908655,0.69452 -3.114773,2.485843 -2.977764,4.44624l0.045913,0.756466l-0.763753,-0.092554c-2.778809,-0.354912 -5.207079,-1.558844 -7.268776,-3.581916l-1.007892,-1.00352l-0.259443,0.741162c-0.549494,1.652127 -0.198226,3.396808 0.946675,4.570132c0.610711,0.648607 0.472973,0.741162 -0.580103,0.354912c-0.366573,-0.123163 -0.687232,-0.215717 -0.717841,-0.169804c-0.106401,0.108587 0.259443,1.512932 0.549494,2.068985c0.397181,0.772499 1.206118,1.528236 2.092306,1.976431l0.748449,0.354912l-0.885458,0.015304c-0.85485,0 -0.885458,0.015304 -0.793633,0.340337c0.305356,1.00352 1.511474,2.068985 2.85533,2.532484l0.946675,0.323575l-0.824242,0.494108c-1.221423,0.711282 -2.657104,1.112107 -4.092786,1.142715c-0.687961,0.014575 -1.25276,0.076521 -1.25276,0.123163c0,0.153771 1.863471,1.018095 2.947156,1.358432c3.252511,1.00352 7.116463,0.570629 10.017705,-1.142715c2.061697,-1.219236 4.122665,-3.643862 5.085374,-5.991238c0.519615,-1.250573 1.038501,-3.535275 1.038501,-4.63062c0,-0.710553 0.045913,-0.803107 0.900763,-1.652127c0.504311,-0.494108 0.977284,-1.034128 1.069109,-1.188628c0.153042,-0.293695 0.137009,-0.293695 -0.64132,-0.031337c-1.297944,0.463499 -1.481594,0.401554 -0.839546,-0.292967c0.472973,-0.494108 1.038501,-1.389769 1.038501,-1.652127c0,-0.045913 -0.228835,0.030608 -0.489006,0.169804c-0.274747,0.1545 -0.885458,0.386249 -1.343856,0.524716l-0.824242,0.263087l-0.748449,-0.510141c-0.412485,-0.277662 -0.991859,-0.586662 -1.297944,-0.679216c-0.779058,-0.215717 -1.970601,-0.185108 -2.673137,0.061946zm-3.036795,30.402198c-12.074301,0 -21.863172,-9.788142 -21.863172,-21.863172s9.788871,-21.863172 21.863172,-21.863172s21.863172,9.788142 21.863172,21.863172s-9.788871,21.863172 -21.863172,21.863172z"/>
 </g>
</svg>