<svg width="284" height="77" viewBox="0 0 284 77" fill="none" xmlns="http://www.w3.org/2000/svg">
<path fill-rule="evenodd" clip-rule="evenodd" d="M42.491 1.97155C45.1132 0.438346 48.3543 0.440968 50.9741 1.97842L88.0969 23.7649C90.9139 25.4182 92.6456 28.4484 92.6456 31.7247L92.6456 69.9171C92.6456 73.3117 89.9049 76.0636 86.5241 76.0636L71.2205 76.1176C67.8397 76.1176 65.099 73.3117 65.099 69.9171L65.099 48.3823C65.099 46.4609 64.078 44.6853 62.4207 43.7246L49.7951 36.406C47.9012 35.3082 45.5679 35.3082 43.674 36.406L31.0484 43.7246C29.3911 44.6853 28.3701 46.4608 28.3701 48.3823L28.3702 69.9171C28.3702 73.3117 25.6295 76.0636 22.2487 76.0636H6.94508C3.56428 76.0636 0.82361 73.3117 0.82361 69.9171L0.823517 31.6349C0.823517 28.3533 2.56073 25.3191 5.38502 23.6677L42.491 1.97155Z" fill="#1E67FC"/>
<path d="M51.2369 52.5442C51.2369 50.2105 53.1211 48.3186 55.4454 48.3186C57.7697 48.3186 59.6539 50.2105 59.6539 52.5442C59.6539 54.878 57.7697 56.7699 55.4454 56.7699C53.1211 56.7699 51.2369 54.878 51.2369 52.5442Z" fill="#1E67FC"/>
<path d="M136.094 64.6207H144.221L133.734 48.9216L143.592 38.7997H135.465L124.086 50.5741V27.4901H116.902V64.6207H124.086V58.2171L128.858 53.2079L136.094 64.6207Z" fill="#1E67FC"/>
<path d="M171.053 60.3345C169.69 60.3345 169.113 59.7148 169.113 58.3721V47.7854C169.113 41.3818 164.499 38.2833 157.21 38.2833C150.813 38.2833 146.88 41.072 145.779 45.4615L151.495 47.8371C152.281 44.5836 154.483 43.4475 157.525 43.4475C160.356 43.4475 161.982 45.2033 161.982 47.9404V49.1798L155.689 50.3675C148.663 51.6586 145.464 54.4989 145.464 58.527C145.464 62.8649 148.61 65.1372 153.592 65.1372C157.997 65.1372 161.3 63.7945 162.873 61.264C163.607 64.0527 165.757 65.1372 168.903 65.1372C170.214 65.1372 171.368 64.879 172.312 64.4142L172.836 60.1279C172.312 60.2828 171.683 60.3345 171.053 60.3345ZM155.847 60.3345C153.959 60.3345 152.858 59.4565 152.858 57.804C152.858 56.0998 154.064 55.2735 156.371 54.7571L161.982 53.5177V56.2031C161.982 58.9401 158.573 60.3345 155.847 60.3345Z" fill="#1E67FC"/>
<path d="M191.777 38.2833C187.844 38.2833 184.593 39.9358 182.811 43.3959L182.601 38.7997H176.151V64.6207H183.335V50.9872C183.335 45.823 186.324 43.8606 189.365 43.8606C192.092 43.8606 194.032 45.3066 194.032 49.7478V64.6207H201.216V47.6822C201.216 41.4335 197.231 38.2833 191.777 38.2833Z" fill="#1E67FC" />
<path d="M224.248 58.3204C223.147 59.25 221.94 59.7664 220.21 59.7664C217.955 59.7664 216.592 58.6819 216.592 56.2031V44.0672H225.087V38.7997H216.592V30.8985L209.408 32.8609V38.7997H204.636V44.0672H209.408V57.3392C209.408 63.0198 212.974 65.1372 218.165 65.1372C220.944 65.1372 223.671 64.3625 225.349 63.0198L224.248 58.3204Z" fill="#1E67FC"/>
<path d="M253.014 60.3345C251.651 60.3345 251.074 59.7148 251.074 58.3721V47.7854C251.074 41.3818 246.459 38.2833 239.171 38.2833C232.774 38.2833 228.841 41.072 227.74 45.4615L233.455 47.8371C234.242 44.5836 236.444 43.4475 239.485 43.4475C242.317 43.4475 243.943 45.2033 243.943 47.9404V49.1798L237.65 50.3675C230.624 51.6586 227.425 54.4989 227.425 58.527C227.425 62.8649 230.571 65.1372 235.553 65.1372C239.957 65.1372 243.261 63.7945 244.834 61.264C245.568 64.0527 247.718 65.1372 250.864 65.1372C252.175 65.1372 253.329 64.879 254.273 64.4142L254.797 60.1279C254.273 60.2828 253.643 60.3345 253.014 60.3345ZM237.807 60.3345C235.92 60.3345 234.819 59.4565 234.819 57.804C234.819 56.0998 236.025 55.2735 238.332 54.7571L243.943 53.5177V56.2031C243.943 58.9401 240.534 60.3345 237.807 60.3345Z" fill="#1E67FC"/>
<path d="M273.738 38.2833C269.805 38.2833 266.554 39.9358 264.771 43.3959L264.562 38.7997H258.112V64.6207H265.296V50.9872C265.296 45.823 268.285 43.8606 271.326 43.8606C274.053 43.8606 275.993 45.3066 275.993 49.7478V64.6207H283.176V47.6822C283.176 41.4335 279.191 38.2833 273.738 38.2833Z" fill="#1E67FC"/>
</svg>
